 <svg  version="1.0" xmlns="http://www.w3.org/2000/svg"  width="300.000000pt" height="300.000000pt" viewBox="0 0 300.000000 300.000000"  preserveAspectRatio="xMidYMid meet">  <g transform="translate(0.000000,300.000000) scale(0.100000,-0.100000)" fill="#000000" stroke="none"> <path d="M1225 2974 c-101 -18 -292 -82 -382 -127 -400 -202 -692 -581 -789 -1027 -24 -106 -27 -468 -6 -565 47 -216 140 -431 253 -588 213 -298 551 -517 909 -588 316 -63 666 -17 948 125 539 271 859 838 811 1435 -16 205 -57 349 -154 546 -141 285 -376 520 -660 659 -181 89 -394 146 -539 146 -70 -1 -61 -12 24 -29 167 -33 224 -46 316 -76 409 -133 751 -465 894 -868 80 -226 106 -474 75 -705 -19 -137 -80 -321 -156 -469 -141 -274 -431 -541 -699 -644 -27 -10 -73 -28 -101 -39 -48 -18 -256 -67 -289 -68 -8 0 -62 -3 -120 -5 -249 -11 -484 39 -702 148 -423 213 -711 614 -783 1090 -19 129 -13 344 14 479 85 419 354 783 734 990 127 69 313 130 477 157 41 6 90 17 110 25 34 12 34 13 -35 12 -38 0 -106 -6 -150 -14z"/> <path d="M1420 2874 c-58 -7 -127 -19 -155 -27 -51 -15 -193 -74 -236 -98 -29 -17 -159 -120 -213 -169 -104 -95 -195 -262 -263 -480 -4 -12 -7 -12 -18 4 -8 10 -33 22 -56 26 -34 6 -45 4 -60 -11 -24 -24 -25 -77 -2 -86 24 -9 93 -8 117 2 17 8 19 5 13 -25 -4 -18 -7 -54 -7 -81 l0 -48 -30 11 c-23 7 -39 7 -60 -2 -45 -19 -51 -68 -19 -147 12 -29 11 -35 -14 -71 -37 -57 -43 -88 -22 -112 10 -11 24 -20 32 -20 10 0 13 -19 13 -73 0 -41 3 -150 8 -243 l7 -169 5 255 c4 188 2 258 -7 268 -15 15 -30 15 -36 0 -2 -7 -7 -11 -10 -8 -8 7 15 74 26 80 5 3 14 -8 21 -25 11 -26 12 -19 10 58 -2 63 -8 92 -19 103 -31 32 -13 84 30 84 44 0 60 -47 28 -82 -15 -17 -17 -54 -20 -326 -2 -169 1 -329 6 -357 8 -47 9 -45 10 40 4 225 14 380 26 400 24 38 26 83 6 121 -15 28 -17 42 -10 67 5 18 9 34 9 37 1 19 20 -36 25 -71 7 -56 24 -99 40 -99 9 0 7 23 -7 88 -26 115 -21 328 10 446 41 154 135 318 244 422 133 128 235 191 398 244 493 161 1019 -84 1210 -564 61 -153 80 -295 60 -446 -7 -52 -19 -108 -27 -124 -8 -16 -21 -50 -29 -77 -27 -91 -72 -174 -148 -276 -42 -57 -81 -103 -86 -103 -6 0 -30 -18 -54 -40 -30 -28 -47 -37 -52 -29 -4 7 2 19 13 28 31 24 127 158 166 231 118 217 141 554 53 769 -14 36 -33 73 -43 83 -17 19 -13 35 7 23 18 -11 59 -100 80 -177 40 -143 36 -360 -11 -528 -23 -85 -87 -216 -138 -285 -54 -73 -58 -86 -11 -35 50 53 152 256 174 346 24 92 39 260 33 346 -9 119 -37 209 -105 341 -2 4 2 7 8 7 16 0 77 -136 97 -217 22 -92 22 -289 -1 -408 -10 -49 -35 -133 -57 -185 -22 -52 -35 -90 -30 -85 24 25 82 180 100 272 25 122 28 290 6 394 -26 124 -163 395 -244 484 -20 22 -43 49 -51 61 -8 11 -22 24 -30 29 -8 5 13 -25 46 -66 62 -75 156 -220 148 -228 -8 -8 -32 23 -71 91 -43 77 -148 197 -202 234 -20 13 -54 38 -75 54 -21 17 -44 30 -50 30 -6 0 13 -16 41 -35 70 -47 175 -146 229 -216 24 -32 44 -61 44 -64 0 -4 9 -20 21 -37 12 -16 18 -32 14 -36 -4 -4 -12 2 -19 12 -55 92 -101 152 -168 219 -73 73 -188 157 -212 157 -6 -1 3 -8 19 -17 51 -27 164 -123 218 -187 67 -78 132 -174 124 -183 -8 -8 -3 -14 -62 75 -54 81 -211 237 -280 277 -25 15 -43 30 -41 33 2 4 -7 8 -20 8 -23 2 -24 1 -7 -12 24 -18 9 -18 -27 1 -17 9 -30 13 -30 10 0 -2 18 -14 41 -26 23 -11 38 -16 34 -10 -23 37 73 -28 156 -107 62 -57 158 -168 183 -209 4 -7 4 -18 1 -23 -4 -6 -22 13 -42 42 -42 63 -207 234 -245 254 -15 8 -36 14 -46 14 -11 0 -25 7 -32 15 -7 8 -39 24 -71 36 -33 12 -58 27 -56 32 8 24 -31 45 -89 47 -109 5 -172 0 -187 -14 -17 -18 -148 -78 -155 -71 -3 2 28 20 69 40 40 19 68 35 62 35 -20 0 -104 -40 -150 -70 -53 -36 -63 -38 -37 -8 11 13 12 18 4 12 -8 -5 -34 -23 -58 -38 -23 -16 -40 -31 -38 -34 3 -2 19 6 36 18 17 12 33 20 36 17 3 -3 -14 -19 -38 -35 -46 -32 -174 -161 -225 -227 -72 -94 -129 -224 -158 -361 -22 -104 -24 -109 -35 -98 -13 13 29 180 70 279 47 110 120 216 223 318 48 48 82 87 75 87 -7 1 -2 10 11 20 44 37 5 20 -54 -23 -216 -158 -368 -417 -391 -665 -4 -40 -11 -75 -17 -79 -14 -9 -3 114 19 202 19 80 75 206 126 286 46 71 168 204 230 252 63 47 51 48 -17 2 -56 -39 -192 -190 -242 -270 -18 -28 -46 -80 -62 -117 -112 -245 -106 -571 14 -811 25 -49 56 -91 42 -57 -3 8 -22 55 -42 103 -20 49 -34 91 -31 94 3 3 10 -7 16 -23 6 -16 15 -38 20 -49 5 -11 22 -50 38 -86 32 -71 130 -224 139 -215 3 3 -13 33 -36 68 -55 85 -86 144 -116 223 -13 37 -34 79 -45 95 -28 40 -66 240 -43 228 4 -3 23 -11 41 -18 24 -11 32 -21 32 -40 0 -16 12 -37 30 -55 21 -20 31 -41 36 -74 6 -46 30 -139 45 -176 4 -11 13 -36 19 -56 6 -20 38 -78 70 -128 33 -50 60 -96 60 -101 0 -13 32 -28 48 -23 18 7 15 -36 -4 -44 -9 -3 -21 3 -31 16 -8 12 -21 20 -28 17 -8 -3 -19 2 -25 10 -7 8 -19 14 -27 14 -15 0 -64 51 -104 111 -15 21 -29 36 -32 33 -6 -7 -46 53 -94 141 -18 33 -33 56 -33 51 0 -5 19 -44 42 -88 36 -67 101 -156 170 -232 10 -11 18 -30 18 -43 0 -13 10 -29 25 -39 25 -16 34 -44 15 -44 -5 0 -10 5 -10 10 0 6 -18 10 -40 10 -27 0 -45 -6 -60 -22 -22 -24 -26 -38 -9 -38 5 0 7 -4 4 -10 -9 -14 12 -48 38 -61 21 -11 21 -11 6 7 -8 10 -21 32 -28 49 -11 25 -10 31 5 42 22 16 56 17 72 1 17 -17 15 -58 -5 -80 -15 -17 -15 -18 10 -18 54 0 57 6 57 96 0 49 4 84 10 84 6 0 10 -36 10 -89 0 -104 -6 -113 -80 -114 -49 -1 -64 -9 -35 -21 27 -10 16 -26 -19 -26 -66 0 -66 0 -67 134 0 91 -3 115 -10 96 -6 -14 -8 -67 -6 -118 7 -130 13 -135 134 -130 126 5 133 13 133 143 0 62 4 94 10 90 6 -3 10 -49 10 -104 0 -93 -1 -98 -27 -123 -26 -24 -37 -27 -124 -30 -84 -3 -100 0 -118 16 -28 25 -36 16 -11 -12 21 -22 22 -23 198 -24 18 0 35 -5 39 -11 3 -5 1 -7 -4 -4 -6 4 -16 0 -23 -7 -6 -8 -19 -15 -28 -16 -195 -14 -206 -15 -172 -21 19 -4 77 -4 128 -1 l93 5 45 52 44 52 0 92 c0 70 3 92 13 88 9 -3 11 -30 10 -96 l-2 -93 -47 -55 c-26 -30 -57 -58 -69 -63 -12 -5 -70 -8 -129 -7 -58 1 -106 -1 -106 -5 0 -11 128 -21 199 -15 65 5 67 6 117 60 72 78 88 54 17 -26 -41 -46 -43 -65 -4 -38 16 12 34 21 40 21 6 0 11 11 11 24 0 14 5 28 10 31 6 4 10 55 10 121 0 69 4 114 10 114 14 0 13 -218 -1 -258 -8 -24 -7 -35 6 -56 21 -31 12 -63 -21 -78 -29 -14 -54 4 -54 37 0 18 -4 22 -20 18 -11 -3 -20 -8 -20 -12 0 -18 29 -43 64 -55 35 -12 41 -12 58 4 11 10 20 33 21 53 2 25 13 46 37 71 37 38 78 50 65 19 -18 -45 -17 -47 7 -25 13 12 29 22 35 22 12 0 23 78 23 163 0 36 4 57 11 57 9 0 10 -30 6 -109 -4 -85 -2 -113 8 -128 19 -24 19 -57 1 -73 -22 -17 -60 -8 -71 18 -12 27 -25 29 -25 3 0 -10 7 -21 15 -25 18 -7 20 -35 3 -41 -7 -2 -48 -14 -91 -26 -97 -28 -143 -65 -132 -107 4 -15 10 -56 13 -92 7 -63 8 -65 49 -88 74 -41 171 -55 373 -56 203 -1 319 16 395 57 38 22 40 25 47 86 4 34 12 69 19 77 17 21 3 60 -30 84 -17 11 -64 29 -106 40 -41 11 -83 23 -92 28 -14 9 -14 10 4 16 34 11 56 79 32 103 -8 8 -8 19 2 41 l13 30 18 -36 c36 -73 44 -82 56 -70 8 8 4 20 -18 45 -30 33 -30 34 -30 158 0 77 4 125 10 125 6 0 10 -48 10 -122 l1 -123 34 -40 35 -40 0 37 c0 20 -4 40 -10 43 -6 4 -10 68 -10 161 0 96 4 154 10 154 6 0 10 -56 10 -149 0 -89 4 -152 10 -156 6 -3 10 -17 10 -31 0 -15 11 -34 27 -48 21 -18 25 -28 19 -50 -8 -34 -49 -55 -71 -36 -8 7 -15 26 -15 42 0 26 -2 29 -15 18 -22 -18 -19 -33 13 -63 35 -34 65 -34 91 -1 27 35 26 70 -3 113 -13 20 -27 47 -30 61 -6 23 -6 23 5 5 18 -32 91 -95 116 -101 32 -8 109 4 121 19 8 10 -4 11 -56 6 l-67 -7 -52 57 -53 56 0 138 c0 85 4 137 10 137 6 0 10 -51 10 -133 l0 -132 44 -51 c43 -49 46 -50 88 -45 32 5 44 11 46 26 7 36 22 41 22 7 0 -30 2 -32 32 -30 18 2 41 12 51 22 18 17 19 30 14 170 -3 107 -9 159 -20 180 -9 16 -13 35 -10 44 5 11 3 13 -7 7 -9 -6 -11 -4 -6 4 5 7 10 10 13 7 3 -3 12 1 20 9 19 19 38 19 57 -1 22 -21 20 -40 -6 -66 -21 -21 -21 -29 -19 -181 2 -112 7 -167 16 -181 16 -26 4 -62 -25 -71 -23 -7 -50 10 -50 32 0 8 -4 11 -10 8 -19 -12 -10 -35 20 -50 40 -21 59 -19 81 8 23 28 24 65 2 89 -13 15 -16 38 -14 125 2 124 8 170 27 198 8 11 14 17 15 15 13 -96 20 -414 10 -447 -9 -32 0 -45 15 -21 4 7 7 145 5 307 -2 237 -5 297 -17 308 -8 8 -14 20 -14 26 0 22 30 57 49 57 42 0 55 -54 20 -86 -21 -19 -21 -24 -18 -311 3 -223 7 -293 16 -293 15 0 28 -44 19 -65 -14 -39 -65 -28 -77 16 -6 22 -7 22 -14 6 -5 -13 -2 -24 11 -37 31 -29 58 -32 83 -9 26 24 26 61 -1 100 -16 24 -17 43 -12 165 7 165 9 192 16 200 4 3 9 -8 12 -25 18 -95 21 -79 26 149 4 177 2 248 -6 255 -13 11 -25 77 -13 70 4 -3 9 2 13 10 9 24 44 18 62 -11 16 -24 16 -26 -5 -55 -21 -28 -22 -43 -28 -267 -4 -184 -3 -234 7 -226 8 8 15 86 22 230 8 187 12 224 29 250 26 43 24 61 -11 96 -25 24 -37 29 -68 26 -41 -3 -41 -7 -10 82 27 75 28 88 33 225 5 161 -13 253 -82 414 -72 167 -191 312 -338 411 -44 29 -81 57 -83 62 -2 4 -10 8 -18 8 -8 0 -34 9 -57 21 -46 23 -132 52 -217 74 -76 20 -205 23 -330 9z m100 -128 c0 -79 -12 -136 -28 -136 -11 0 -13 8 -8 38 3 20 6 61 6 90 0 39 4 52 15 52 11 0 15 -12 15 -44z m42 -13 c5 -67 2 -78 -18 -62 -20 16 -20 119 0 119 10 0 15 -17 18 -57z m38 33 c0 -14 4 -36 10 -51 8 -20 7 -27 -6 -32 -20 -7 -21 -6 -29 55 -6 44 -4 52 9 52 10 0 16 -9 16 -24z m49 10 c8 -10 9 -16 1 -21 -7 -4 -7 -12 0 -25 7 -13 7 -21 0 -25 -6 -4 -17 8 -24 26 -20 48 -4 78 23 45z m-176 -26 c-4 -44 -26 -131 -35 -136 -16 -10 -18 23 -3 65 8 24 15 49 15 56 0 21 -47 23 -87 4 -32 -15 -34 -18 -14 -18 20 -1 22 -4 16 -28 -9 -40 -41 -71 -56 -56 -9 9 -7 17 12 32 20 18 22 22 9 30 -9 7 -18 7 -24 1 -6 -6 -16 -10 -24 -10 -11 0 -12 3 -3 13 6 8 7 18 3 22 -4 5 -1 5 6 1 6 -4 12 -2 12 3 0 6 3 10 8 9 4 -1 18 4 32 12 32 17 78 29 110 27 20 -2 25 -7 23 -27z m-208 -41 c0 -8 -10 -14 -21 -15 -12 -1 -52 -26 -90 -57 -144 -116 -265 -288 -309 -440 -9 -31 -21 -57 -26 -57 -14 0 -11 12 21 102 53 145 173 303 322 423 79 63 103 74 103 44z m498 -9 c23 -10 56 -30 72 -44 l30 -24 -22 -30 c-12 -16 -24 -45 -28 -63 -8 -44 20 -73 68 -71 44 1 75 -39 57 -73 -11 -20 -9 -28 8 -57 12 -19 32 -40 46 -47 22 -12 24 -19 21 -68 -2 -29 -10 -65 -19 -78 -9 -13 -16 -34 -16 -45 0 -25 -17 -60 -29 -60 -4 0 -8 33 -7 73 1 75 -33 193 -61 210 -7 4 -13 12 -13 17 0 13 -66 80 -78 80 -5 0 -15 6 -21 14 -15 18 -134 55 -195 60 -27 2 -70 -2 -96 -9 -63 -17 -167 -73 -205 -110 -37 -38 -81 -118 -89 -165 -5 -30 -3 -28 14 14 35 88 104 173 155 192 9 4 -8 -17 -39 -46 -67 -64 -117 -170 -117 -253 0 -29 -1 -79 -2 -112 -1 -33 1 -63 6 -66 4 -3 3 -16 -2 -30 l-10 -24 0 27 c-1 24 -6 27 -46 34 -74 11 -155 -29 -155 -76 0 -6 12 2 26 19 14 17 33 31 41 31 11 0 8 -6 -10 -20 -30 -24 -47 -68 -36 -95 25 -65 -6 -109 -44 -62 -12 15 -31 27 -42 27 -88 0 -99 2 -111 18 -18 23 -17 42 2 42 9 0 30 10 47 22 17 12 42 21 56 20 14 -1 37 8 50 19 21 17 22 23 13 44 -7 14 -17 25 -24 26 -7 0 -29 2 -47 4 -19 1 -45 -1 -58 -6 -18 -7 -23 -5 -23 9 0 9 -7 26 -15 36 -8 11 -15 31 -15 44 l0 24 19 -23 19 -24 29 21 c19 14 31 35 37 63 7 34 17 48 48 67 27 18 38 31 38 49 0 27 70 107 97 111 8 1 23 10 32 18 11 10 25 14 35 10 11 -4 27 3 45 20 16 15 34 24 43 21 8 -3 26 4 41 15 20 16 27 30 27 57 0 26 5 36 19 40 15 4 18 12 14 46 -4 34 -1 46 16 62 22 19 22 19 44 -7 14 -16 36 -28 61 -32 35 -5 44 -1 78 29 45 41 47 41 81 15 33 -26 71 -25 96 1 20 22 20 22 1 47 -37 46 -23 53 43 22z m-72 -31 c26 -14 15 -29 -22 -29 -39 0 -40 29 -1 39 2 1 12 -4 23 -10z m-668 -65 c-181 -164 -306 -401 -319 -606 -7 -104 -12 -134 -24 -122 -16 16 9 200 41 296 36 110 83 201 149 290 54 71 194 208 214 208 6 0 -21 -30 -61 -66z m192 44 c-84 -60 -219 -226 -274 -335 -17 -34 -40 -99 -52 -145 -24 -94 -37 -124 -49 -112 -11 12 62 233 96 292 70 121 253 322 292 322 12 -1 8 -7 -13 -22z m780 -77 c80 -82 145 -163 145 -180 0 -23 -18 -9 -53 42 -20 29 -48 63 -61 74 -13 11 -25 25 -27 30 -2 5 -21 22 -41 37 -21 16 -36 32 -33 36 3 4 -7 15 -20 24 -14 9 -23 21 -19 27 7 13 15 6 109 -90z m-737 41 c-1 -4 -30 -45 -63 -90 -33 -45 -69 -99 -81 -119 -21 -38 -44 -55 -43 -31 0 7 22 45 50 83 27 39 64 91 82 117 17 26 38 48 45 48 8 0 12 -4 10 -8z m35 -44 c-44 -47 -103 -133 -103 -149 0 -9 -7 -22 -15 -29 -12 -10 -16 -9 -20 2 -11 28 132 225 149 208 6 -6 2 -18 -11 -32z m637 -56 c0 -20 -24 -9 -35 16 -5 12 -15 22 -22 22 -16 0 -26 17 -18 31 8 12 75 -50 75 -69z m-750 63 c0 -3 -26 -38 -58 -78 -80 -98 -137 -192 -157 -254 -10 -29 -21 -53 -26 -53 -26 0 7 90 66 182 82 125 175 234 175 203z m140 -20 c0 -14 -32 -65 -40 -65 -15 0 -12 17 6 45 15 23 34 34 34 20z m554 -38 c6 -9 7 -19 3 -23 -9 -10 -48 26 -41 38 8 12 25 6 38 -15z m155 -43 c53 -58 61 -74 36 -74 -8 0 -15 4 -15 9 0 5 -20 31 -45 59 -25 27 -45 53 -45 56 0 17 23 0 69 -50z m-18 -36 c66 -81 75 -114 34 -124 -28 -7 -45 4 -75 47 -17 22 -17 28 -5 32 9 4 22 -7 35 -29 12 -18 26 -34 31 -34 19 0 7 30 -36 89 -51 69 -38 85 16 19z m-731 17 c0 -16 -27 -32 -37 -22 -3 4 -3 13 0 22 8 20 37 20 37 0z m424 -26 c73 -27 132 -84 172 -165 l29 -59 3 -291 3 -291 -62 -7 c-79 -8 -566 -8 -608 0 -30 6 -31 8 -27 54 2 26 7 54 12 61 4 7 3 14 -4 17 -12 4 -17 64 -6 75 4 3 14 -3 23 -13 14 -17 34 -21 142 -26 124 -7 126 -7 142 16 30 43 10 50 -145 50 -128 0 -139 1 -134 18 3 9 1 24 -4 32 -8 12 -10 9 -10 -12 0 -16 -4 -28 -10 -28 -6 0 -7 19 -4 48 7 52 24 81 24 41 0 -44 15 -49 145 -49 124 0 145 6 145 41 0 25 -20 29 -156 29 -75 0 -124 4 -125 10 -1 6 -2 14 -3 19 -3 21 -16 23 -16 3 0 -12 -4 -22 -10 -22 -11 0 -14 49 -4 74 3 9 10 16 15 16 4 0 6 -6 3 -13 -11 -30 26 -41 151 -45 118 -4 123 -4 138 19 29 41 9 48 -141 51 l-137 3 -4 40 -5 40 -7 -45 c-7 -45 -7 -45 -5 10 4 96 64 202 149 265 93 68 208 80 331 34z m466 -79 c0 -5 4 -9 9 -7 5 1 11 -2 13 -8 4 -14 -53 -18 -72 -5 -13 9 -13 11 0 20 20 13 50 13 50 0z m-1120 -13 c0 -14 -20 -37 -32 -37 -4 0 -2 11 4 25 12 27 28 34 28 12z m1214 -18 c-2 -4 -14 -6 -26 -4 -34 7 -35 16 -1 13 18 -1 30 -5 27 -9z m7 -135 c40 -84 59 -179 59 -309 0 -210 -25 -337 -93 -469 -45 -86 -121 -196 -137 -196 -15 0 -13 4 28 54 57 69 129 212 153 302 14 57 22 125 26 244 5 146 3 175 -16 253 -22 94 -46 147 -85 194 -14 17 -22 33 -18 37 10 11 50 -42 83 -110z m-99 89 c23 -26 74 -132 87 -178 6 -22 15 -81 21 -130 12 -115 -9 -362 -39 -447 -47 -135 -180 -343 -203 -320 -7 7 4 25 36 58 54 56 138 218 163 314 26 99 25 453 -1 530 -34 99 -96 209 -96 170 0 -6 11 -32 24 -58 62 -124 82 -262 66 -450 -15 -175 -33 -252 -86 -359 -46 -93 -84 -143 -84 -110 0 9 5 19 10 22 9 6 77 142 100 201 4 11 16 74 25 139 23 157 17 374 -13 455 -32 90 -64 148 -84 153 -33 9 -19 27 20 27 25 0 45 -7 54 -17z m137 -75 c68 -138 84 -284 56 -495 -21 -164 -55 -256 -143 -387 -83 -124 -80 -121 -87 -115 -2 3 29 56 69 117 89 134 120 219 142 387 27 202 8 360 -59 495 -17 36 -33 68 -35 73 -2 4 1 7 7 7 5 0 28 -37 50 -82z m-188 -11 c44 -93 60 -184 57 -316 -2 -76 -7 -116 -15 -118 -8 -3 -10 22 -6 95 9 157 -29 315 -89 375 -31 32 -29 54 3 36 11 -6 34 -38 50 -72z m-42 -43 c33 -87 42 -140 44 -259 1 -109 -6 -146 -25 -127 -6 6 -6 17 2 32 25 46 -13 315 -51 364 -19 24 -19 46 1 46 5 0 18 -25 29 -56z m-39 -55 c17 -62 30 -151 24 -161 -11 -18 -21 4 -27 62 -4 33 -13 75 -21 94 -14 33 -12 46 5 46 5 0 13 -19 19 -41z m-1575 -6 c8 -20 12 -39 9 -42 -4 -3 -9 0 -11 7 -3 6 -11 12 -18 12 -7 0 -15 -6 -18 -12 -2 -7 -7 -10 -11 -7 -6 6 20 79 29 79 3 0 12 -16 20 -37z m45 -3 c0 -22 -4 -40 -10 -40 -5 0 -10 18 -10 40 0 22 5 40 10 40 6 0 10 -18 10 -40z m1484 -47 c14 -48 18 -93 8 -93 -6 0 -14 5 -18 12 -5 7 -11 5 -21 -7 -7 -11 -13 -14 -13 -8 0 7 5 15 10 18 6 3 10 26 10 51 0 44 14 60 24 27z m-1191 -85 c-2 -5 -11 -8 -19 -8 -15 0 -19 27 -7 55 5 14 8 12 18 -11 7 -16 10 -32 8 -36z m97 -29 c0 -20 -24 -26 -35 -9 -8 13 14 42 26 34 5 -3 9 -14 9 -25z m60 1 c0 -13 -7 -20 -20 -20 -13 0 -20 7 -20 20 0 13 7 20 20 20 13 0 20 -7 20 -20z m-116 -16 c8 -20 -2 -54 -14 -54 -15 0 -22 20 -16 46 7 28 21 31 30 8z m315 -10 c27 -34 27 -88 1 -114 -18 -18 -20 -33 -20 -130 0 -99 2 -110 20 -120 12 -6 20 -21 20 -36 0 -14 5 -34 11 -45 5 -11 9 -30 6 -42 -2 -15 -9 -2 -22 41 -10 34 -20 60 -23 58 -8 -9 39 -147 57 -165 9 -9 16 -21 14 -27 -1 -5 6 -20 16 -33 17 -22 18 -22 16 -2 -1 11 -4 24 -8 27 -11 12 -8 24 6 24 25 0 35 -21 26 -53 -8 -27 -5 -35 22 -63 40 -41 110 -78 178 -94 124 -29 261 16 360 119 99 103 141 212 150 393 6 122 5 128 -16 153 -30 34 -29 66 3 104 30 36 59 39 91 9 23 -22 33 -91 15 -102 -5 -3 -12 -70 -15 -149 -5 -119 -10 -158 -32 -223 -86 -255 -291 -410 -517 -391 -65 6 -176 45 -206 74 -7 7 -33 26 -57 44 -118 85 -186 269 -191 516 -1 78 -7 139 -14 150 -10 16 -11 16 -7 -5 3 -12 1 -20 -4 -16 -25 15 2 88 42 110 36 20 55 17 78 -12z m-409 -11 c0 -5 -6 -16 -14 -25 -15 -20 -38 -5 -29 18 5 14 43 20 43 7z m30 -61 c0 -26 5 -53 12 -60 15 -15 6 -24 -15 -16 -22 8 -29 32 -21 81 8 58 24 55 24 -5z m114 -144 c4 -46 12 -103 18 -128 13 -55 79 -201 107 -236 12 -15 37 -61 57 -103 20 -42 48 -88 62 -103 14 -16 22 -28 16 -28 -5 0 -2 -5 6 -10 8 -5 10 -10 4 -10 -6 0 -17 7 -24 15 -7 8 -24 15 -37 15 -21 0 -24 4 -20 21 7 24 -42 141 -72 174 -24 25 -66 110 -98 194 -23 63 -57 256 -47 273 14 22 22 1 28 -74z m-50 0 c14 -148 63 -285 135 -378 32 -42 55 -94 48 -112 -3 -7 -12 5 -22 27 -10 22 -27 52 -40 67 -31 37 -111 204 -124 260 -17 72 -32 189 -25 199 13 22 22 4 28 -63z m99 47 c-4 -50 30 -216 57 -274 17 -35 32 -62 35 -59 3 2 -4 36 -16 74 -23 79 -37 234 -22 234 6 0 13 -37 17 -82 12 -156 38 -254 100 -376 32 -62 65 -119 73 -128 9 -8 13 -18 10 -21 -15 -15 -40 13 -76 84 -22 43 -60 114 -85 158 -60 104 -85 171 -102 275 -18 107 -18 143 -1 137 6 -2 11 -12 10 -22z m106 18 c0 -5 -4 -17 -9 -28 -8 -18 -9 -17 -9 8 -1 15 4 27 9 27 6 0 10 -3 9 -7z m151 0 c0 -5 -5 -15 -10 -23 -8 -12 -10 -11 -10 8 0 12 5 22 10 22 6 0 10 -3 10 -7z m749 -35 c0 -38 -1 -40 -10 -19 -8 22 -4 61 7 61 2 0 4 -19 3 -42z m208 16 c27 -27 2 -169 -50 -277 -44 -92 -59 -101 -34 -20 21 66 28 111 30 202 1 49 7 84 16 95 17 20 19 20 38 0z m-959 -50 c-3 -3 -2 -21 4 -40 10 -37 3 -78 -13 -69 -14 9 -11 115 3 115 6 0 9 -3 6 -6z m743 -106 c-11 -94 -49 -205 -86 -254 -14 -18 -25 -37 -25 -41 0 -10 -55 -61 -91 -84 -106 -69 -302 -50 -405 39 -18 15 -41 92 -28 92 4 0 62 -30 130 -68 86 -48 238 -30 340 39 83 57 162 203 151 277 -6 31 10 98 20 88 3 -2 0 -42 -6 -88z m-1421 42 c0 -22 -4 -40 -10 -40 -5 0 -10 18 -10 40 0 22 5 40 10 40 6 0 10 -18 10 -40z m1383 -60 c-43 -177 -172 -291 -331 -292 -75 -1 -209 39 -204 61 1 7 -2 10 -6 7 -12 -7 -44 28 -35 39 5 4 3 5 -3 2 -6 -4 -20 3 -30 16 -17 19 -17 20 -1 8 17 -14 17 -13 0 17 -10 17 -21 28 -25 26 -4 -3 -5 3 -1 12 4 12 3 15 -5 10 -7 -4 -10 -2 -7 7 3 7 1 24 -4 38 -6 14 -10 18 -11 9 -2 -20 -18 18 -19 45 -1 20 5 20 344 20 l344 0 -6 -25z m579 -105 c9 -37 5 -43 -31 -37 -31 4 -33 13 -12 50 16 29 33 24 43 -13z m-1212 -76 c0 -12 -27 -11 -35 1 -11 17 5 32 21 19 8 -6 14 -15 14 -20z m1109 -113 c-8 -8 -13 -7 -16 2 -3 6 -11 12 -19 12 -19 0 -18 19 3 42 16 18 17 17 30 -13 10 -25 11 -35 2 -43z m-357 -16 l-20 -27 20 -21 c25 -24 16 -47 -12 -32 -15 8 -22 6 -33 -10 -12 -17 -16 -18 -33 -6 -18 13 -16 18 36 94 48 70 55 77 58 54 2 -14 -5 -37 -16 -52z m228 -56 c0 -8 5 -25 12 -37 6 -12 12 -32 13 -44 1 -20 -1 -20 -25 -8 -24 13 -52 18 -77 16 -7 0 -24 -13 -38 -28 l-25 -28 0 28 c0 17 5 27 14 27 8 0 33 20 57 45 44 46 69 57 69 29z m241 -26 c2 -20 0 -40 -4 -44 -4 -4 -7 14 -7 41 0 56 7 57 11 3z m-1551 -8 c0 -11 -4 -20 -9 -20 -13 0 -32 26 -24 33 13 14 33 6 33 -13z m1140 -118 c0 -151 6 -166 66 -160 l39 4 3 48 c3 40 -1 51 -17 63 -12 8 -21 23 -21 34 0 10 -5 19 -11 19 -5 0 -7 5 -4 10 4 6 10 8 15 5 4 -3 10 2 14 10 12 32 86 7 86 -29 0 -7 -9 -25 -20 -39 -15 -19 -20 -40 -20 -85 l0 -60 -56 -4 c-50 -3 -59 0 -75 21 -16 20 -19 41 -19 142 0 64 -3 124 -6 133 -4 11 -1 16 10 16 14 0 16 -17 16 -128z m-831 79 c33 -21 86 -48 118 -60 32 -13 65 -26 73 -30 12 -7 15 -40 18 -182 1 -95 0 -179 -2 -185 -3 -7 -14 -10 -26 -7 -15 4 -19 10 -13 22 4 9 6 36 4 61 -1 25 -2 94 -1 153 0 122 -10 148 -49 121 -18 -13 -21 -13 -21 -1 0 24 -28 41 -43 28 -11 -8 -19 -6 -37 9 -18 16 -26 17 -37 8 -21 -17 -51 15 -34 36 10 12 9 20 -4 40 -10 14 -15 26 -11 26 3 0 32 -17 65 -39z m641 -16 c0 -18 -4 -23 -15 -19 -16 6 -20 26 -8 37 13 14 23 6 23 -18z m-58 -34 c-11 -20 -19 -26 -24 -18 -5 7 1 19 13 30 29 23 31 22 11 -12z m-62 -30 c0 -12 -20 -25 -27 -18 -7 7 6 27 18 27 5 0 9 -4 9 -9z m360 -15 c0 -8 7 -27 15 -42 8 -16 15 -34 15 -41 0 -16 -37 -36 -44 -24 -18 28 -13 136 5 125 5 -3 9 -11 9 -18z m-868 -99 l1 -109 -37 -30 c-42 -34 -51 -16 -11 22 24 22 25 29 25 128 0 68 4 102 11 100 6 -2 10 -45 11 -111z m538 3 c0 -67 -4 -110 -10 -110 -11 0 -14 202 -3 213 12 13 13 7 13 -103z m-470 5 c0 -90 -1 -96 -22 -104 -30 -11 -35 -5 -15 17 13 14 17 38 17 100 0 48 4 82 10 82 6 0 10 -38 10 -95z m360 -33 c-5 -128 -4 -142 11 -142 5 0 9 56 9 125 0 77 4 125 10 125 6 0 10 -45 10 -115 0 -113 0 -115 23 -115 46 0 62 -43 28 -74 -29 -26 -65 -17 -69 17 -2 15 -8 27 -13 27 -13 0 -11 -31 5 -61 11 -22 11 -25 -3 -24 -37 2 -39 12 -39 183 0 145 2 168 17 173 9 4 16 6 16 5 0 0 -2 -56 -5 -124z m-60 -127 l0 -235 -65 0 -65 0 0 213 c0 116 -3 222 -6 235 -6 21 -4 22 65 22 l71 0 0 -235z m659 122 c1 -27 -6 -45 -24 -62 -13 -14 -29 -25 -35 -25 -13 0 -13 47 0 55 6 3 10 26 10 51 0 26 7 56 17 71 l18 27 7 -40 c4 -21 7 -56 7 -77z m-829 -296 c0 -47 -9 -51 -132 -51 -48 0 -90 -4 -93 -10 -3 -5 2 -10 12 -11 10 -1 56 -2 103 -4 47 -2 128 -6 180 -10 93 -6 150 3 150 24 0 5 -9 13 -20 16 -15 5 -20 15 -20 42 l0 36 73 -6 c39 -4 103 -15 141 -26 213 -59 145 -156 -135 -191 -131 -17 -289 -3 -450 39 -40 11 -76 18 -81 15 -12 -8 -57 26 -63 47 -8 25 8 45 55 69 35 18 154 45 230 53 19 2 38 5 43 5 4 1 7 -15 7 -37z m-270 -156 c16 -9 19 -14 9 -15 -8 0 -24 7 -35 15 -24 18 -7 19 26 0z m45 -25 c-3 -6 5 -10 19 -10 13 0 36 -4 49 -9 49 -19 310 -43 396 -37 46 4 87 8 90 10 3 2 15 -5 26 -16 15 -15 16 -18 3 -13 -9 4 -46 -1 -83 -10 -54 -14 -97 -16 -214 -12 -146 5 -208 12 -246 24 -11 4 -22 7 -25 8 -3 0 -24 11 -48 25 -45 26 -45 36 3 43 17 2 31 5 33 6 2 0 0 -3 -3 -9z m659 -32 c-5 -9 -2 -9 9 1 15 11 17 11 17 -2 0 -14 -18 -26 -47 -33 -6 -1 -9 4 -7 10 3 9 -5 11 -28 8 -18 -2 -30 -1 -26 2 3 4 21 10 40 13 18 3 35 7 37 9 9 9 12 3 5 -8z"/> <path d="M1547 2424 c-10 -11 -8 -206 2 -223 5 -8 16 -11 25 -8 24 9 19 230 -4 235 -9 1 -19 0 -23 -4z"/> <path d="M1637 2413 c-11 -11 -8 -211 3 -218 6 -4 17 -1 25 5 19 16 21 190 3 208 -14 14 -22 15 -31 5z"/> <path d="M1460 2306 c0 -108 10 -137 37 -101 14 20 17 84 7 159 -5 36 -11 46 -25 46 -17 0 -19 -9 -19 -104z"/> <path d="M1717 2373 c-13 -12 -7 -110 6 -122 22 -17 37 7 37 59 0 53 -22 85 -43 63z"/> <path d="M1373 2344 c-6 -16 3 -113 11 -122 3 -2 12 -2 21 1 11 5 15 22 15 72 0 59 -2 65 -20 65 -11 0 -23 -7 -27 -16z"/> <path d="M1705 2081 c-96 -6 -100 -7 -103 -30 -2 -13 1 -28 6 -33 5 -5 60 -6 136 -2 132 7 161 17 154 53 -4 19 -38 21 -193 12z"/> <path d="M1741 1970 c-130 -5 -153 -14 -137 -55 6 -16 19 -17 137 -13 111 3 133 7 144 21 15 20 9 58 -9 55 -6 -1 -67 -5 -135 -8z"/> <path d="M1720 1851 c-112 -6 -115 -7 -118 -30 -2 -13 2 -27 9 -31 6 -5 66 -6 133 -3 98 4 125 9 140 23 26 25 14 51 -21 48 -15 -1 -80 -4 -143 -7z"/> <path d="M1233 1747 c5 -75 11 -78 161 -75 l131 3 3 27 c4 35 -7 37 -163 41 -105 2 -120 4 -120 19 0 9 -3 20 -7 24 -4 3 -6 -14 -5 -39z"/> <path d="M1748 1740 c-139 -9 -150 -12 -146 -42 3 -23 6 -23 135 -23 109 0 135 3 149 16 18 18 11 60 -9 58 -7 -1 -65 -5 -129 -9z"/> <path d="M1473 1513 c-9 -3 -13 -34 -13 -108 0 -105 8 -128 35 -105 10 9 14 37 14 105 0 93 -8 118 -36 108z"/> <path d="M1550 1500 c-12 -23 -13 -207 -1 -214 5 -4 16 -3 25 0 23 9 24 219 1 228 -8 3 -19 -3 -25 -14z"/> <path d="M1382 1498 c-14 -14 -16 -126 -3 -147 5 -8 16 -11 25 -8 14 6 16 20 14 84 -3 76 -12 95 -36 71z"/> <path d="M1637 1503 c-11 -11 -8 -201 3 -208 6 -4 17 -1 25 5 11 9 15 37 15 111 0 89 -2 99 -18 99 -10 0 -22 -3 -25 -7z"/> <path d="M1719 1436 c-1 -36 -2 -72 -3 -78 -1 -7 7 -14 16 -16 22 -4 30 27 26 98 -2 43 -7 56 -20 58 -16 3 -18 -6 -19 -62z"/> <path d="M2181 1047 c-15 -19 -3 -49 18 -45 9 2 16 13 16 27 0 29 -17 37 -34 18z"/> <path d="M1733 734 c-9 -23 13 -40 32 -24 12 10 13 16 4 26 -15 18 -28 18 -36 -2z"/> <path d="M833 2527 c-92 -100 -161 -222 -206 -367 -49 -157 -49 -420 0 -543 21 -52 25 -41 7 18 -20 68 -32 259 -23 370 15 175 96 363 219 505 60 69 62 81 3 17z"/> <path d="M2270 2504 c0 -5 12 -22 26 -39 l26 -30 -23 35 c-29 45 -29 45 -29 34z"/> <path d="M2386 2300 c4 -14 17 -46 30 -72 38 -76 66 -194 74 -318 l8 -115 -2 115 c-4 138 -25 229 -77 337 -21 43 -36 67 -33 53z"/> <path d="M457 1844 c-4 -4 -7 -16 -7 -26 0 -14 6 -19 23 -16 14 2 22 10 22 23 0 20 -25 32 -38 19z"/> <path d="M2483 1755 c0 -22 2 -30 4 -17 2 12 2 30 0 40 -3 9 -5 -1 -4 -23z"/> <path d="M647 1440 c26 -50 60 -104 76 -121 15 -17 27 -34 27 -38 0 -10 111 -121 121 -121 5 0 -16 30 -47 67 -60 71 -127 170 -164 243 -22 43 -36 60 -53 60 -4 0 14 -41 40 -90z"/> <path d="M2523 1494 c-7 -18 11 -39 26 -30 17 11 13 46 -4 46 -9 0 -18 -7 -22 -16z"/> <path d="M805 1441 c15 -49 142 -237 153 -227 2 3 -14 32 -36 64 -22 32 -49 76 -60 98 -11 21 -30 50 -42 64 l-22 25 7 -24z"/> <path d="M2420 1331 c0 -11 4 -22 9 -25 12 -8 34 21 26 34 -11 17 -35 11 -35 -9z"/> <path d="M606 1279 c-29 -22 -28 -51 2 -99 9 -14 17 -50 18 -80 6 -132 8 -138 13 -35 5 96 4 112 -11 128 -27 27 -23 66 8 77 39 15 58 -4 49 -49 -4 -20 -8 -99 -9 -176 l-1 -140 40 -1 40 -2 -3 109 c-3 96 -6 110 -24 123 -23 16 -16 36 13 36 27 0 24 17 -6 24 -20 5 -25 13 -25 39 -1 65 -51 87 -104 46z m132 -260 c-1 -78 -3 -91 -20 -100 -11 -6 -22 -8 -25 -5 -7 7 -11 180 -5 213 l5 24 22 -21 c21 -20 23 -31 23 -111z"/> <path d="M634 1235 c-7 -18 3 -35 22 -35 8 0 14 10 14 25 0 27 -27 35 -36 10z"/> <path d="M2303 1194 c-7 -18 11 -39 26 -30 17 11 13 46 -4 46 -9 0 -18 -7 -22 -16z"/> <path d="M862 1047 c-16 -19 11 -58 28 -41 14 14 10 46 -6 51 -6 2 -16 -2 -22 -10z"/> <path d="M641 924 c0 -11 6 -29 14 -40 8 -10 15 -14 15 -8 0 5 -4 14 -9 20 -5 5 -11 18 -14 29 -5 20 -5 19 -6 -1z"/> <path d="M2293 774 c-7 -18 11 -39 26 -30 17 11 13 46 -4 46 -9 0 -18 -7 -22 -16z"/> <path d="M1354 735 c-4 -9 -2 -21 4 -27 15 -15 44 -1 40 19 -4 23 -36 29 -44 8z"/> <path d="M1947 723 c-10 -9 -8 -41 2 -48 14 -8 41 23 35 40 -6 16 -26 20 -37 8z"/> <path d="M1130 700 c0 -24 29 -38 40 -20 12 19 1 40 -21 40 -12 0 -19 -7 -19 -20z"/> <path d="M2423 654 c-8 -21 13 -42 28 -27 13 13 5 43 -11 43 -6 0 -13 -7 -17 -16z"/> <path d="M2256 642 c-3 -5 1 -15 9 -22 16 -14 20 -3 6 19 -5 8 -11 9 -15 3z"/> <path d="M1081 385 c-2 -5 -4 -18 -6 -27 -4 -20 26 -58 45 -58 9 0 6 8 -7 23 -12 12 -23 33 -26 47 -2 14 -5 21 -6 15z"/> <path d="M2022 370 c10 -15 10 -22 0 -32 -6 -6 -12 -19 -12 -27 0 -9 7 -3 15 13 19 36 19 52 0 60 -12 4 -13 2 -3 -14z"/> <path d="M1136 258 c3 -4 13 -8 23 -8 9 0 21 -4 27 -9 5 -5 27 -11 49 -12 22 -1 48 -6 57 -11 23 -11 336 -19 343 -8 6 10 -56 18 -225 26 -74 3 -142 10 -151 15 -22 11 -130 18 -123 7z"/> <path d="M1660 221 c0 -5 18 -8 39 -8 21 1 37 5 34 10 -6 10 -73 9 -73 -2z"/> </g> </svg> 