 <svg  version="1.0" xmlns="http://www.w3.org/2000/svg"  width="473.000000pt" height="473.000000pt" viewBox="0 0 473.000000 473.000000"  preserveAspectRatio="xMidYMid meet">  <g transform="translate(0.000000,473.000000) scale(0.100000,-0.100000)" fill="#ffffff" stroke="none"> <path d="M1990 4714 c-14 -2 -58 -9 -99 -15 -356 -53 -730 -220 -1031 -462 -390 -314 -678 -784 -774 -1267 -82 -415 -50 -855 90 -1222 171 -450 471 -824 869 -1084 285 -186 607 -303 947 -344 148 -19 514 -8 653 19 763 145 1380 656 1668 1381 103 258 142 479 141 805 0 205 -3 246 -27 375 -110 604 -428 1094 -942 1452 -99 70 -320 185 -442 233 -187 72 -493 135 -650 135 -112 -1 -75 -15 103 -40 282 -41 503 -107 723 -218 566 -284 962 -770 1135 -1392 46 -166 79 -480 69 -662 -5 -94 -29 -273 -49 -363 -22 -96 -20 -92 -44 -170 -12 -38 -24 -80 -27 -93 -3 -12 -9 -25 -14 -28 -5 -3 -9 -12 -9 -19 0 -14 -25 -72 -88 -205 -47 -100 -154 -268 -229 -361 -73 -90 -158 -184 -215 -238 -83 -78 -251 -209 -321 -251 -76 -45 -91 -54 -97 -60 -11 -11 -155 -81 -161 -78 -3 2 -12 -2 -20 -9 -16 -13 -161 -70 -259 -102 -56 -19 -218 -54 -345 -76 -61 -10 -452 -14 -520 -5 -33 5 -78 11 -100 13 -178 23 -411 92 -585 174 -85 40 -281 149 -290 162 -3 4 -22 18 -44 31 -21 12 -57 39 -80 59 -24 20 -65 54 -92 76 -135 110 -286 281 -412 466 -100 148 -240 466 -277 629 -85 381 -92 650 -25 1000 12 66 85 311 107 360 98 222 171 350 283 499 214 283 485 507 797 657 73 35 137 64 143 64 6 0 38 11 73 25 97 40 277 83 452 110 203 30 243 44 125 43 -47 0 -96 -2 -110 -4z"/> <path d="M2117 4524 c-59 -7 -136 -22 -170 -32 -34 -11 -89 -28 -122 -38 -75 -21 -274 -117 -340 -163 -66 -47 -220 -175 -272 -227 -88 -89 -176 -218 -240 -354 -36 -74 -67 -148 -70 -165 -3 -16 -10 -39 -16 -50 -6 -11 -12 -35 -14 -54 -2 -18 -8 -42 -13 -51 -5 -10 -13 -44 -16 -76 -4 -33 -10 -63 -14 -69 -4 -5 -6 -58 -6 -117 2 -76 -1 -109 -10 -112 -7 -3 -15 1 -18 9 -3 8 -19 21 -37 31 -92 47 -180 -71 -117 -159 13 -19 23 -51 26 -84 4 -50 3 -55 -30 -87 -24 -23 -37 -49 -46 -86 -14 -61 -8 -73 38 -72 23 0 31 -4 35 -21 4 -20 14 -431 15 -646 0 -52 2 -92 4 -90 3 3 8 176 11 386 7 375 6 382 -14 404 -21 23 -51 20 -51 -6 0 -8 -7 -15 -16 -15 -9 0 -13 6 -11 13 3 6 14 36 23 65 10 28 23 52 29 52 7 0 18 -19 26 -42 14 -42 14 -40 17 85 3 126 2 129 -22 148 -69 55 -10 167 69 131 14 -6 27 -23 31 -37 7 -29 -11 -81 -33 -93 -12 -7 -15 -84 -18 -458 -2 -247 -1 -496 3 -554 8 -111 9 -95 27 513 3 113 7 144 23 170 27 44 28 117 2 150 -29 36 -28 137 1 176 35 47 54 31 56 -46 3 -78 16 -128 49 -197 24 -48 25 -49 20 -16 -3 19 -12 67 -20 105 -76 354 -30 681 144 1014 130 250 403 496 685 619 106 46 258 89 379 109 125 19 412 13 526 -12 420 -92 777 -356 975 -720 52 -95 115 -258 144 -371 55 -216 46 -527 -19 -667 -11 -23 -36 -89 -55 -146 -45 -130 -79 -198 -141 -281 -26 -36 -72 -97 -101 -136 -51 -70 -105 -124 -124 -124 -5 0 -31 -23 -58 -51 -27 -29 -54 -48 -60 -45 -15 10 -14 33 3 39 23 9 191 239 242 333 129 238 182 475 171 779 -7 212 -37 334 -117 482 -45 84 -49 98 -22 84 26 -14 96 -162 126 -263 47 -161 56 -334 31 -558 -34 -294 -119 -496 -323 -769 l-27 -36 31 25 c110 88 278 417 328 643 12 52 36 301 36 371 0 96 -26 262 -56 353 -14 43 -45 119 -70 169 l-45 92 -62 -1 c-34 0 -64 -4 -67 -8 -4 -5 -17 -1 -30 9 -14 9 -38 17 -55 18 -16 0 -55 1 -86 2 l-56 2 2 48 c2 35 6 46 16 43 8 -2 30 -5 49 -7 40 -2 102 -18 120 -29 7 -4 33 -9 59 -11 25 -1 47 -8 49 -13 2 -6 11 -11 19 -11 9 0 13 -6 9 -15 -3 -9 0 -15 9 -15 9 0 12 6 8 16 -4 12 -2 15 8 12 8 -3 13 -12 11 -19 -3 -11 -1 -11 9 -2 9 9 2 21 -32 55 -24 24 -61 77 -82 118 -46 93 -223 302 -293 345 -26 17 -68 47 -92 68 -43 37 -153 97 -202 111 -14 4 13 -12 59 -36 46 -23 102 -59 125 -79 22 -19 61 -49 86 -66 81 -56 245 -246 292 -337 11 -22 29 -52 39 -65 23 -29 24 -41 3 -41 -8 0 -24 20 -35 45 -52 117 -240 327 -400 448 -66 49 -205 124 -214 115 -2 -2 29 -20 68 -40 152 -79 343 -260 467 -443 38 -58 70 -109 70 -115 0 -20 -27 -9 -38 15 -56 122 -310 395 -459 492 -85 55 -210 119 -219 111 -2 -3 22 -17 53 -31 129 -58 372 -260 473 -393 24 -32 59 -77 77 -98 30 -37 44 -86 24 -86 -4 0 -22 21 -39 48 -17 26 -43 65 -58 87 -15 22 -86 99 -158 172 -125 126 -186 170 -227 164 -8 -1 -33 11 -55 25 -21 15 -75 42 -119 60 -64 27 -79 37 -77 52 2 13 -4 21 -18 25 -12 3 -18 11 -15 20 9 21 -139 29 -300 16 -101 -8 -142 -16 -185 -35 -68 -31 -187 -100 -220 -129 -14 -12 -47 -37 -75 -56 -101 -67 -295 -271 -384 -402 -88 -129 -174 -350 -206 -530 -17 -97 -28 -118 -47 -99 -7 7 -7 21 0 44 6 18 22 80 35 138 30 128 93 289 152 390 58 99 201 275 283 351 37 33 129 106 204 162 76 55 135 103 132 106 -2 3 -17 -5 -32 -17 -15 -12 -64 -46 -109 -77 -315 -212 -521 -466 -633 -780 -44 -124 -70 -255 -70 -351 0 -97 -8 -146 -24 -141 -13 5 -11 133 4 246 21 157 96 363 186 514 91 152 289 366 422 456 87 59 71 64 -20 6 -81 -53 -239 -202 -329 -311 -154 -188 -260 -435 -289 -674 -16 -133 -20 -150 -32 -150 -17 0 -2 160 27 280 41 172 111 326 215 480 63 92 268 306 342 357 74 51 85 71 16 30 -76 -44 -164 -114 -189 -148 -13 -19 -58 -73 -100 -120 -281 -315 -395 -713 -333 -1161 21 -155 88 -350 161 -471 42 -69 52 -70 19 -1 -25 51 -57 131 -101 249 -25 69 -30 89 -40 170 -3 22 -9 63 -15 90 -5 28 -10 83 -12 124 -3 81 10 103 32 51 13 -32 82 -80 114 -80 13 0 16 -5 11 -17 -10 -24 -7 -71 6 -95 6 -11 24 -24 40 -30 16 -5 29 -15 30 -21 0 -7 2 -21 5 -32 2 -11 7 -38 10 -60 10 -69 55 -249 71 -278 7 -15 16 -45 18 -67 4 -40 24 -88 48 -112 7 -7 32 -44 56 -83 24 -38 54 -81 66 -95 13 -14 26 -35 30 -48 9 -31 39 -46 55 -27 11 14 14 13 26 -3 15 -22 27 -75 14 -67 -4 3 -22 -6 -38 -20 -16 -14 -31 -25 -33 -25 -2 0 -5 12 -6 26 -2 38 -28 62 -52 47 -15 -10 -22 -7 -39 16 -16 22 -27 27 -46 24 -19 -4 -26 -1 -26 11 0 9 -17 35 -39 59 -21 23 -56 67 -77 97 -22 30 -45 55 -53 55 -15 0 -79 97 -132 199 -46 89 -106 279 -125 395 -12 79 -15 148 -12 299 4 174 8 209 32 297 69 257 165 433 337 620 53 57 62 70 33 47 -84 -67 -211 -233 -278 -367 -45 -86 -114 -290 -137 -400 -8 -34 -13 -137 -13 -240 -1 -213 18 -338 70 -457 19 -42 34 -84 34 -94 0 -27 122 -253 161 -298 91 -104 180 -221 185 -245 8 -31 42 -71 61 -71 21 0 15 16 -12 28 -27 12 -30 19 -17 40 13 20 42 3 42 -24 0 -13 5 -24 11 -24 14 0 9 -192 -5 -202 -19 -13 -22 -9 -18 27 5 40 -19 100 -44 109 -40 15 -86 6 -116 -24 -21 -22 -27 -34 -20 -43 5 -6 10 -25 10 -42 0 -20 9 -37 29 -55 16 -14 33 -33 36 -43 9 -24 51 -38 100 -32 66 8 94 24 109 60 10 24 17 32 27 26 18 -11 7 -58 -22 -94 -19 -24 -33 -30 -92 -37 -104 -14 -187 -12 -209 5 -26 20 -32 68 -31 230 1 77 -2 131 -6 120 -4 -11 -8 -86 -8 -167 l-1 -147 32 -37 32 -36 136 4 136 3 32 35 31 35 1 143 c0 110 3 143 13 139 19 -6 17 -297 -3 -318 -8 -9 -25 -28 -37 -43 -21 -24 -29 -26 -100 -26 -43 0 -109 -3 -146 -7 l-69 -6 -49 49 c-27 26 -49 44 -49 38 0 -5 20 -30 45 -54 l46 -45 150 2 c167 2 194 11 226 70 10 18 20 33 23 33 4 0 5 16 3 36 -3 46 7 39 13 -8 4 -37 -23 -87 -88 -161 -28 -32 -41 -38 -83 -42 -27 -3 -70 -8 -95 -11 -25 -3 -82 -6 -127 -5 -88 0 -122 -12 -45 -16 26 -2 111 0 190 3 l143 6 70 85 71 84 -3 132 c-3 111 -1 132 11 132 23 0 22 -282 0 -299 -9 -6 -30 -31 -47 -56 -17 -25 -47 -61 -67 -80 l-36 -34 -138 -8 c-88 -4 -149 -3 -170 3 -33 11 -62 7 -62 -8 0 -5 81 -10 180 -12 169 -3 182 -2 214 18 35 22 165 173 167 194 1 7 1 26 1 42 0 23 1 25 5 8 2 -13 8 -23 11 -23 7 0 7 -18 3 -111 -1 -18 -21 -48 -61 -90 -33 -35 -60 -67 -60 -71 0 -9 68 30 76 43 3 5 14 9 25 9 10 0 19 7 19 15 0 8 -4 15 -10 15 -5 0 -10 -5 -10 -12 0 -6 -3 -8 -6 -5 -4 4 5 22 20 42 26 34 27 40 33 205 5 141 9 170 21 170 13 0 14 -23 8 -167 -3 -93 -11 -189 -18 -214 -10 -41 -9 -51 11 -92 21 -43 21 -47 6 -77 -9 -17 -27 -36 -40 -42 -48 -21 -101 44 -75 92 10 20 10 20 -24 2 -20 -9 -36 -22 -36 -28 0 -23 40 -61 78 -73 77 -26 125 16 124 105 -1 39 3 46 43 79 33 28 48 49 61 92 16 52 18 54 28 32 8 -19 11 0 18 91 5 63 7 125 5 138 -3 17 1 22 16 22 19 0 20 -4 13 -77 -3 -42 -6 -104 -6 -138 0 -54 -3 -63 -22 -72 -12 -5 -17 -12 -11 -16 20 -12 45 19 55 69 12 65 10 208 -4 239 -14 31 -33 32 -50 3 -16 -30 -15 -24 -17 -134 0 -52 -5 -93 -9 -90 -8 5 -6 160 2 182 6 15 -30 73 -49 81 -9 3 -24 -2 -34 -11 -23 -21 -34 -20 -49 4 -16 26 -39 25 -63 -2 l-18 -23 -1 23 c0 28 -28 72 -45 72 -8 0 -21 -7 -30 -16 -21 -21 -27 -14 -32 41 -4 39 -3 44 11 39 16 -6 15 -3 0 32 -42 96 -88 181 -109 204 -33 35 -128 231 -158 327 -27 85 -72 357 -62 373 3 6 12 10 19 10 10 0 17 -33 25 -117 6 -65 20 -156 31 -202 21 -89 106 -278 158 -350 18 -24 55 -91 83 -148 29 -59 61 -111 75 -120 13 -8 24 -21 24 -29 0 -7 16 -25 36 -40 32 -25 36 -26 51 -11 16 15 15 20 -6 59 -13 24 -38 66 -56 93 -17 28 -37 65 -45 83 -31 78 -121 245 -114 213 8 -43 140 -308 188 -380 41 -60 41 -61 23 -61 -25 0 -65 56 -137 195 -40 77 -80 151 -90 165 -30 43 -75 133 -103 201 -52 132 -92 434 -57 434 11 0 16 -14 17 -55 4 -88 33 -268 53 -324 9 -28 31 -78 48 -111 26 -51 31 -56 32 -33 0 15 -11 66 -25 113 -31 107 -54 300 -38 316 23 23 33 -3 33 -84 0 -80 20 -222 40 -282 10 -29 10 -29 6 7 -7 60 12 54 29 -9 39 -141 70 -222 107 -277 56 -83 81 -118 96 -134 6 -7 12 -20 12 -27 0 -32 244 -164 336 -181 26 -5 33 -12 38 -36 8 -38 8 -543 0 -550 -3 -3 -17 -3 -31 1 -60 16 -313 -35 -398 -79 -58 -31 -100 -84 -89 -115 3 -11 9 -65 13 -120 3 -55 10 -106 14 -113 14 -22 101 -60 183 -81 170 -42 500 -57 709 -31 183 23 338 70 374 113 6 8 14 54 16 102 4 93 11 125 25 125 12 0 -8 48 -29 74 -46 54 -221 106 -440 130 -24 3 -46 8 -50 11 -3 4 -7 120 -7 258 -1 139 -3 260 -5 271 -3 15 7 22 56 36 156 45 288 136 392 272 60 77 132 194 140 228 3 14 9 30 13 35 11 15 47 163 55 225 4 30 9 102 11 159 4 125 6 132 43 154 25 15 30 15 41 2 7 -8 24 -15 37 -15 23 0 25 -3 19 -32 -3 -18 -10 -67 -16 -108 -17 -133 -30 -183 -68 -265 -20 -44 -40 -83 -45 -86 -5 -3 -9 -10 -9 -15 -2 -18 -31 -79 -50 -107 -14 -20 -18 -37 -14 -58 4 -23 -1 -39 -24 -71 l-30 -41 20 -22 c19 -21 23 -21 82 -9 33 7 64 17 67 21 3 5 38 54 77 108 175 246 224 376 259 680 18 153 19 249 5 365 -20 159 -61 287 -126 393 -26 43 -33 62 -25 70 14 14 10 18 69 -93 116 -217 147 -475 97 -810 -38 -252 -92 -380 -267 -630 -40 -58 -83 -109 -96 -115 -12 -5 -25 -18 -28 -28 -5 -17 -7 -18 -25 -1 -17 16 -20 16 -44 0 l-26 -17 1 -177 c3 -265 20 -305 136 -308 35 0 67 -4 71 -8 12 -12 -21 -34 -61 -40 -37 -6 -41 -4 -97 54 l-59 60 -1 97 c0 54 0 139 0 188 2 82 0 93 -23 120 l-25 30 -21 -21 c-21 -21 -22 -29 -21 -200 1 -99 6 -196 11 -218 5 -23 24 -55 48 -80 22 -22 56 -58 76 -80 l37 -38 82 4 c71 4 137 21 125 33 -2 3 -46 0 -98 -6 l-95 -10 -77 79 -78 79 0 189 c0 104 -3 200 -7 213 -5 19 -2 22 13 19 22 -4 22 -4 23 -244 l1 -162 65 -70 c64 -69 66 -70 108 -65 84 9 87 10 87 48 0 28 5 37 30 50 27 14 30 20 32 70 3 103 5 112 32 148 23 30 27 44 23 77 -5 46 -18 65 -60 86 -38 20 -76 11 -116 -28 -33 -33 -44 -63 -12 -34 19 17 19 17 14 -3 -3 -12 -9 -24 -14 -27 -19 -11 -9 -63 15 -82 29 -22 43 -81 27 -111 -8 -15 -21 -21 -44 -21 -59 1 -62 9 -60 175 1 83 2 156 2 162 1 8 11 11 29 7 24 -5 34 0 63 31 63 69 92 95 108 97 9 0 21 2 27 2 6 1 19 7 28 15 23 19 20 1 -5 -25 -26 -28 -19 -77 15 -99 21 -14 22 -20 24 -235 l2 -221 -37 -36 c-21 -20 -30 -33 -20 -30 19 7 24 -12 6 -30 -19 -19 -5 -56 26 -74 57 -32 77 -30 109 8 36 43 38 88 6 134 -23 31 -23 34 -16 246 l7 215 30 41 c33 45 37 81 12 117 -26 38 -45 49 -80 50 -18 0 -33 5 -33 10 0 6 34 56 76 111 82 109 133 209 184 359 18 52 38 104 45 115 11 18 30 103 43 200 15 104 5 349 -18 435 -32 127 -44 168 -56 195 -7 17 -22 55 -34 85 -12 30 -26 61 -32 67 -6 7 -8 13 -4 13 4 0 -9 25 -29 55 -19 31 -35 58 -35 61 0 3 -13 26 -30 51 -16 24 -30 46 -30 49 0 3 -6 11 -12 18 -23 24 -58 66 -58 70 0 17 -245 236 -265 236 -3 0 -14 9 -24 19 -53 53 -256 151 -418 202 -93 30 -133 39 -228 54 -79 13 -302 12 -408 -1z m3 -94 c0 -6 -12 -15 -27 -21 -73 -26 -195 -84 -206 -97 -9 -11 -4 -11 23 3 19 10 42 19 50 20 8 1 41 14 72 29 60 28 158 40 177 21 18 -18 -34 -235 -56 -235 -25 0 -24 24 2 106 17 52 24 89 18 95 -32 32 -168 -8 -211 -62 -13 -16 -30 -29 -38 -29 -21 0 -17 10 14 43 l27 29 -31 -15 c-17 -9 -34 -26 -37 -38 -5 -18 -11 -20 -33 -15 -22 6 -38 -2 -99 -48 -222 -170 -422 -445 -491 -674 -28 -94 -38 -112 -54 -96 -9 9 31 135 78 244 31 72 153 247 242 347 77 87 269 251 355 304 50 30 196 98 213 99 6 0 12 -5 12 -10z m215 -22 c2 -7 5 -48 8 -91 3 -63 1 -80 -10 -84 -8 -3 -19 0 -24 8 -10 16 -12 162 -2 172 10 11 23 8 28 -5z m63 -19 c1 -13 7 -48 14 -77 10 -44 9 -55 -2 -62 -8 -5 -19 -5 -26 1 -14 11 -29 142 -19 159 11 18 30 6 33 -21z m-127 -109 c-1 -69 -6 -129 -11 -134 -5 -5 -16 -6 -26 -2 -13 5 -15 14 -10 46 3 22 9 81 13 130 5 75 9 90 22 88 13 -3 15 -21 12 -128z m210 114 c11 -13 10 -17 -4 -25 -21 -12 -22 -33 -2 -49 18 -15 4 -36 -18 -27 -16 6 -41 92 -32 108 9 14 41 11 56 -7z m125 -79 c33 -13 84 -37 113 -54 28 -17 56 -31 61 -31 5 0 17 -15 26 -32 9 -18 30 -51 47 -72 26 -32 27 -37 9 -27 -11 6 -24 16 -27 21 -9 14 -61 12 -72 -2 -6 -7 -17 -34 -25 -60 -14 -44 -14 -49 4 -77 22 -34 48 -46 81 -35 12 4 36 7 53 8 25 1 30 -3 32 -23 1 -14 6 -27 11 -30 4 -3 13 -16 19 -27 9 -18 8 -25 -8 -39 -36 -32 -26 -60 51 -142 12 -13 31 -23 43 -23 32 0 36 -7 19 -41 -14 -27 -13 -32 1 -48 20 -22 20 -28 -3 -57 -11 -13 -17 -33 -14 -43 3 -11 -5 -28 -20 -43 -22 -22 -25 -33 -22 -84 2 -33 10 -93 19 -134 9 -41 16 -76 16 -78 0 -2 -8 -2 -17 -1 -30 3 -43 -1 -43 -10 0 -14 -44 -80 -52 -81 -5 0 -8 80 -9 178 0 174 -8 271 -27 344 -10 38 -49 119 -61 128 -4 3 -17 21 -28 40 -34 55 -82 96 -166 139 -42 23 -80 41 -85 42 -4 1 -18 6 -32 11 -14 6 -72 12 -130 14 -118 4 -195 -11 -229 -45 -23 -23 -57 -30 -45 -8 6 9 5 9 -8 0 -8 -7 -19 -9 -23 -5 -5 4 -5 -1 -2 -10 5 -13 -7 -28 -46 -57 -52 -39 -116 -101 -104 -101 3 0 -4 -11 -17 -25 -13 -14 -31 -51 -41 -82 -9 -32 -24 -73 -32 -92 -11 -25 -14 -56 -11 -113 3 -43 1 -81 -5 -85 -5 -3 -6 -34 -2 -73 4 -44 3 -75 -4 -89 -8 -14 -8 -21 -1 -21 5 0 10 -21 10 -46 0 -40 -2 -45 -15 -34 -8 7 -15 22 -15 34 0 17 -2 18 -10 6 -5 -8 -10 -10 -10 -5 0 6 -14 19 -31 29 -25 15 -42 17 -92 12 -34 -4 -71 -13 -82 -21 -42 -30 -52 -41 -60 -64 -6 -20 0 -17 32 17 25 27 49 42 64 42 23 0 22 -1 -8 -20 -63 -38 -76 -103 -38 -187 17 -36 25 -71 25 -108 0 -53 -16 -85 -22 -44 -5 33 -32 46 -67 33 -28 -11 -29 -11 -35 25 -4 20 -13 45 -21 55 -13 17 -18 18 -41 7 -22 -10 -30 -9 -45 5 -16 14 -23 15 -42 6 -12 -7 -35 -10 -52 -8 -16 3 -33 5 -36 5 -4 1 -13 28 -20 61 -11 50 -15 57 -21 39 -12 -31 1 -87 25 -110 16 -15 18 -22 9 -31 -9 -9 -18 -7 -39 9 -27 19 -28 24 -28 103 0 45 3 84 7 87 5 2 8 8 8 12 0 13 -33 47 -53 54 -13 5 -17 16 -15 41 3 42 21 41 66 -4 18 -17 36 -29 42 -25 13 8 13 -14 -1 -54 -9 -27 -8 -35 6 -51 30 -33 82 -21 98 23 4 10 17 17 31 17 14 0 27 4 30 9 4 5 18 5 36 -2 26 -10 32 -8 55 13 52 49 18 92 -77 96 -35 1 -68 -2 -74 -7 -7 -5 -26 -14 -42 -18 l-30 -9 5 37 c5 33 1 42 -30 72 -20 19 -35 41 -33 49 1 8 6 36 10 62 9 54 26 73 57 63 12 -4 18 -10 13 -14 -20 -14 -22 -74 -4 -96 7 -8 20 -15 30 -15 26 0 70 57 70 90 0 16 5 32 10 35 6 4 8 10 5 15 -2 4 0 22 6 39 9 25 17 31 39 31 39 0 55 19 79 93 19 55 25 64 53 72 19 6 38 21 45 35 14 28 7 44 -8 18 -16 -28 -40 -49 -50 -42 -9 5 19 61 49 97 14 16 16 16 29 -3 20 -28 51 -25 79 7 21 24 25 26 47 14 21 -11 28 -11 51 4 15 10 30 31 33 47 6 28 35 39 48 18 10 -16 41 -12 65 8 13 11 25 36 31 67 5 27 18 59 29 70 18 19 20 30 14 78 -6 54 -6 57 25 83 42 35 74 99 67 130 -5 17 -2 26 9 31 38 14 41 -22 10 -127 -3 -8 4 -30 15 -47 17 -29 22 -32 45 -23 20 7 32 6 50 -6 23 -15 27 -15 51 1 14 9 30 29 35 44 7 20 21 31 48 40 57 16 66 14 105 -25 30 -30 41 -35 64 -29 15 3 38 17 51 30 l24 23 -22 30 c-12 17 -30 33 -40 37 -12 4 -18 16 -19 41 -1 30 1 35 16 29 9 -4 44 -18 78 -30z m-557 -14 c26 -17 -34 -121 -70 -121 -33 0 -33 23 2 52 31 26 33 29 17 42 -10 7 -18 18 -18 25 0 13 49 15 69 2z m-125 -90 c-1 -38 -9 -48 -26 -30 -18 19 -21 48 -7 65 17 20 34 2 33 -35z m-64 22 c-1 -5 -29 -28 -63 -53 -112 -82 -311 -327 -384 -475 -35 -70 -66 -159 -98 -286 -23 -93 -35 -116 -54 -105 -15 10 -14 38 4 63 8 12 22 51 30 88 35 148 107 299 210 438 108 146 302 337 341 337 8 0 14 -3 14 -7z m690 -8 c18 -22 3 -35 -40 -35 -41 0 -55 11 -46 35 7 20 70 20 86 0z m433 -131 c130 -134 227 -251 227 -274 0 -26 -36 -1 -71 49 -20 29 -60 77 -88 105 -28 28 -51 57 -51 63 0 6 -15 21 -32 32 -55 35 -94 74 -80 79 7 2 -4 16 -28 33 -37 27 -45 49 -19 49 6 0 69 -61 142 -136z m-1098 42 c-6 -8 -37 -49 -71 -93 -78 -101 -137 -190 -153 -230 -14 -34 -51 -47 -51 -19 0 15 90 152 145 221 17 22 43 58 58 81 37 59 57 78 71 64 7 -7 7 -15 1 -24z m81 -7 c3 -6 -11 -30 -33 -52 -22 -23 -48 -55 -58 -72 -10 -16 -35 -50 -56 -75 -20 -25 -39 -59 -41 -74 -4 -35 -32 -56 -49 -39 -9 9 -8 18 7 39 24 33 31 44 73 113 37 60 129 171 142 171 4 0 11 -5 15 -11z m854 -39 c21 -21 19 -40 -4 -40 -18 0 -49 37 -41 49 9 16 23 13 45 -9z m-1050 -5 c0 -8 -4 -15 -9 -15 -21 0 -229 -288 -279 -386 -11 -22 -30 -70 -42 -107 -12 -37 -25 -67 -30 -67 -20 0 -17 34 10 104 44 118 108 221 247 393 70 88 103 112 103 78z m210 -20 c0 -3 -11 -28 -26 -56 -21 -42 -28 -48 -39 -39 -16 13 -15 16 19 67 18 28 46 45 46 28z m904 -37 c19 -27 21 -48 4 -48 -16 0 -58 41 -58 57 0 21 37 15 54 -9z m-64 -28 c9 -16 8 -22 -5 -26 -19 -8 -65 21 -65 40 0 33 50 22 70 -14z m217 -53 c39 -41 75 -88 81 -105 10 -30 10 -31 -14 -20 -13 6 -37 33 -53 59 -16 26 -48 62 -70 80 -41 32 -53 59 -27 59 7 0 45 -33 83 -73z m15 -105 c32 -42 42 -62 42 -95 1 -38 -1 -41 -31 -48 -21 -4 -39 -2 -52 7 -25 18 -81 100 -73 108 15 16 39 2 60 -34 12 -22 31 -44 42 -50 17 -9 20 -8 20 12 0 26 -32 77 -93 151 -33 39 -38 51 -26 58 15 10 32 -7 111 -109z m-1137 88 c10 -16 -14 -50 -35 -50 -25 0 -31 21 -12 43 17 19 38 22 47 7z m539 -25 c191 -40 332 -167 388 -349 22 -68 23 -86 23 -478 0 -223 -4 -410 -8 -415 -11 -11 -422 -19 -765 -15 l-273 3 2 77 c2 54 9 85 21 104 10 14 18 33 18 42 0 12 8 14 33 11 31 -5 31 -5 4 4 -16 5 -35 15 -43 22 -12 10 -14 6 -14 -25 0 -20 -4 -36 -10 -36 -6 0 -10 27 -10 60 0 47 3 60 15 60 8 0 15 -7 15 -15 0 -34 41 -43 223 -50 177 -7 178 -7 203 16 26 25 31 60 11 78 -9 7 -93 12 -238 13 l-224 3 0 65 c0 63 14 100 39 100 6 0 5 -5 -2 -12 -18 -18 -15 -36 13 -63 24 -25 26 -25 208 -25 l185 0 17 26 c13 21 15 32 7 50 -11 23 -13 23 -212 26 -165 2 -202 6 -210 18 -13 20 -13 43 0 35 17 -11 11 1 -11 21 l-22 19 5 -42 c5 -33 3 -40 -8 -36 -25 10 -15 133 11 133 8 0 11 -8 8 -18 -2 -10 5 -26 17 -37 20 -18 40 -20 207 -23 165 -4 186 -2 204 14 21 19 25 54 7 72 -8 8 -47 12 -108 12 -52 0 -146 3 -209 7 l-114 6 6 66 c4 36 9 77 12 91 6 23 6 24 -6 5 -7 -11 -15 -55 -17 -97 -5 -90 -22 -106 -22 -20 0 73 46 206 96 279 72 105 173 177 299 214 75 22 140 23 229 4z m805 -261 c31 -39 97 -175 119 -244 49 -149 61 -345 38 -590 -23 -237 -55 -344 -164 -545 -56 -103 -174 -251 -192 -240 -18 11 -10 31 19 52 77 58 219 308 266 469 52 179 67 557 30 748 -26 136 -129 356 -166 356 -10 0 23 -89 45 -123 27 -40 73 -200 86 -295 20 -147 7 -420 -31 -642 -25 -140 -170 -440 -214 -440 -22 0 -18 16 14 52 43 50 148 290 165 378 29 152 38 239 43 395 8 245 -21 403 -103 567 -28 55 -41 71 -70 83 -53 22 -31 44 42 44 45 -1 57 -5 73 -25z m87 -32 c78 -108 114 -206 139 -383 20 -141 19 -263 -5 -457 -21 -176 -52 -298 -102 -397 -65 -128 -206 -335 -229 -335 -16 0 -9 27 12 46 35 32 145 204 188 294 22 47 51 124 65 171 26 93 56 348 56 484 0 239 -66 475 -165 584 -33 36 -36 51 -11 51 6 0 30 -26 52 -58z m-232 3 c29 -20 99 -167 127 -270 17 -64 22 -118 26 -266 4 -130 2 -192 -6 -207 -26 -48 -31 -21 -25 121 4 90 2 174 -5 231 -23 172 -94 343 -153 367 -22 9 -26 14 -17 25 15 18 24 18 53 -1z m-13 -117 c24 -44 69 -210 80 -296 11 -86 8 -291 -6 -324 -10 -25 -35 -23 -35 2 0 12 7 35 16 52 11 22 14 45 10 82 -3 28 -10 96 -15 151 -13 148 -40 247 -81 306 -12 16 -18 33 -15 39 11 17 34 11 46 -12z m-33 -176 c38 -174 40 -229 6 -201 -8 6 -14 30 -14 53 0 54 -25 166 -44 204 -11 21 -12 32 -4 40 22 22 36 -2 56 -96z m-833 -14 c23 -21 -26 -28 -165 -25 -139 4 -198 15 -185 37 7 11 337 0 350 -12z m-1045 -97 c0 -9 6 -23 13 -30 17 -18 -20 -46 -40 -30 -16 14 -16 29 -3 64 11 28 30 26 30 -4z m932 -64 c73 -1 109 -6 112 -14 8 -19 -22 -23 -140 -22 -150 1 -192 7 -205 31 -10 18 -7 19 58 13 37 -3 116 -7 175 -8z m-774 -26 c6 -37 -5 -53 -27 -42 -27 15 -33 38 -14 56 20 20 37 14 41 -14z m90 -13 c3 -24 0 -28 -23 -28 -27 0 -41 20 -31 46 10 27 51 13 54 -18z m-173 -22 c9 -45 -2 -76 -26 -76 -25 0 -28 35 -8 87 12 33 27 28 34 -11z m453 8 c30 -21 54 -70 54 -109 0 -37 -26 -93 -48 -102 -11 -4 -14 -36 -14 -174 l0 -168 30 -16 c25 -13 30 -22 30 -53 0 -20 9 -57 20 -81 22 -47 25 -77 11 -86 -10 -6 -61 141 -61 175 0 10 -4 22 -10 25 -20 12 15 -130 54 -218 24 -54 27 -56 71 -63 66 -9 75 -21 62 -85 l-10 -53 54 -48 c174 -155 458 -184 655 -67 87 52 203 171 251 259 91 165 115 263 118 475 l3 160 -27 28 c-22 24 -26 37 -26 88 0 57 2 63 37 95 21 19 47 34 58 34 33 0 74 -26 90 -56 19 -35 18 -106 -3 -138 -14 -21 -17 -53 -17 -173 0 -173 -11 -256 -46 -373 -47 -153 -129 -286 -248 -397 -87 -82 -159 -126 -268 -164 -72 -25 -98 -29 -193 -29 -64 0 -133 6 -165 15 -30 8 -56 12 -58 10 -3 -2 -19 7 -37 20 -17 14 -46 27 -64 29 -18 2 -38 9 -44 16 -9 10 -9 11 3 6 8 -4 4 1 -10 11 -14 9 -61 51 -104 93 l-80 75 59 -70 c33 -38 44 -56 26 -40 -37 33 -132 153 -112 141 10 -7 11 -4 2 13 -7 11 -14 21 -17 21 -3 0 -2 -5 2 -12 4 -7 3 -8 -4 -4 -6 4 -8 14 -5 23 5 12 3 14 -7 8 -8 -5 -11 -4 -7 2 3 5 -1 21 -11 34 -9 13 -27 53 -40 89 -28 77 -29 80 -37 144 -4 30 -10 44 -14 37 -15 -24 -22 33 -28 225 -4 140 -3 193 6 198 8 5 2 17 -19 36 -22 20 -30 37 -30 62 0 46 29 98 69 125 40 27 68 29 99 7z m-602 -35 c5 -9 -6 -43 -23 -68 -6 -9 -33 23 -33 40 0 28 42 49 56 28z m970 -82 c131 -2 154 -4 152 -17 -3 -13 -30 -15 -168 -15 -149 0 -168 2 -192 20 -38 28 -35 34 13 24 22 -5 110 -10 195 -12z m-279 -112 c7 -23 8 -37 1 -41 -12 -8 0 -163 14 -181 6 -7 6 -19 -1 -32 -17 -31 -13 -64 15 -143 33 -91 65 -155 98 -192 24 -26 30 -39 28 -57 -1 -7 140 -73 203 -96 101 -35 173 -45 255 -34 147 20 267 92 355 213 59 81 82 131 100 218 12 55 12 68 0 86 -12 18 -12 24 2 43 10 15 16 55 19 124 3 56 6 107 6 114 2 20 26 2 37 -29 8 -23 8 -29 -2 -25 -17 6 -23 -269 -6 -289 10 -12 9 -13 -6 -8 -16 7 -17 2 -11 -48 5 -36 3 -58 -3 -63 -6 -3 -11 -17 -11 -30 0 -13 -10 -31 -22 -39 -12 -9 -18 -16 -13 -16 6 0 4 -4 -4 -9 -7 -5 -14 -22 -15 -38 -1 -19 -16 -47 -44 -78 -23 -26 -42 -55 -42 -64 0 -8 -21 -35 -47 -59 -117 -108 -249 -164 -378 -161 -44 1 -91 5 -105 9 -14 4 -45 14 -70 21 -60 18 -154 74 -188 113 -24 27 -27 39 -26 89 1 49 -2 58 -22 72 -13 8 -34 15 -47 15 -28 0 -42 26 -52 96 -4 27 -11 56 -16 65 -4 8 -10 35 -13 59 -2 24 -15 57 -28 74 -21 29 -23 39 -20 170 1 105 5 145 17 163 21 31 30 29 42 -12z m-544 -96 c10 -118 34 -242 63 -323 25 -73 124 -256 154 -286 23 -23 71 -130 64 -141 -10 -17 -20 -9 -33 29 -8 20 -33 64 -56 97 -109 156 -173 298 -204 453 -23 116 -36 237 -26 252 17 27 30 -2 38 -81z m-493 -124 c0 -37 -4 -65 -10 -65 -6 0 -10 28 -10 65 0 37 4 65 10 65 6 0 10 -28 10 -65z m2178 20 c-1 -14 -6 -25 -10 -25 -10 0 -10 13 -2 34 9 23 14 19 12 -9z m-7 -76 l-10 -24 0 26 c-1 14 2 29 6 33 12 12 14 -9 4 -35z m-86 -29 c-22 -118 -82 -225 -175 -314 -52 -49 -83 -68 -150 -95 -76 -30 -95 -34 -180 -34 -80 0 -110 5 -192 32 -84 27 -106 40 -155 85 -32 30 -74 80 -93 112 -40 66 -79 175 -80 219 l0 30 516 0 515 0 -6 -35z m674 -496 c12 -15 21 -33 21 -40 0 -24 -22 -62 -42 -71 -19 -8 -20 -20 -21 -253 -2 -241 -2 -244 21 -267 29 -29 28 -68 -3 -98 -28 -29 -51 -32 -77 -8 -29 26 -18 94 18 116 11 6 14 57 14 251 0 232 -1 244 -20 257 -34 24 -36 70 -5 107 33 39 66 41 94 6z m-409 -299 c0 -182 1 -193 21 -211 17 -15 33 -18 78 -15 31 1 58 5 61 8 2 2 3 36 1 75 -2 62 -6 74 -27 90 -49 39 -21 138 39 138 73 0 101 -79 46 -131 -28 -26 -30 -33 -29 -91 3 -126 11 -114 -80 -124 l-80 -10 -29 37 -30 36 -1 194 c-1 107 -1 197 -1 201 1 4 8 5 16 2 13 -5 15 -37 15 -199z m-1634 56 c1 -146 -6 -161 -82 -170 -69 -9 -94 -3 -103 23 -5 12 -16 28 -24 35 -9 7 -19 27 -23 44 -3 18 -11 35 -16 38 -14 9 1 35 28 48 40 18 71 13 93 -15 29 -36 27 -79 -4 -108 -13 -13 -23 -25 -20 -27 2 -3 28 -2 57 1 49 5 53 7 59 35 4 17 7 74 8 128 1 74 4 98 14 95 9 -4 12 -39 13 -127z m406 -214 c0 -92 -1 -169 -3 -170 -2 -1 -28 -22 -56 -45 -65 -53 -74 -31 -13 30 l40 40 0 160 c0 140 2 159 16 156 13 -3 16 -26 16 -171z m315 66 c-2 -16 -4 -5 -4 22 0 28 2 40 4 28 2 -13 2 -35 0 -50z m237 -296 l-1 -352 -99 -3 -99 -3 0 356 0 355 100 0 100 0 -1 -353z m-226 -22 c0 -121 -2 -184 -8 -175 -6 8 -9 115 -8 240 1 124 4 203 8 175 3 -27 7 -135 8 -240z m-382 139 c-3 -8 -9 -14 -14 -14 -9 0 -5 66 6 90 8 18 16 -56 8 -76z m354 -383 l0 -58 -46 -7 c-26 -3 -97 -6 -158 -6 -103 0 -150 -9 -134 -26 4 -3 67 -6 141 -5 104 1 142 -2 173 -15 60 -25 256 -25 308 1 50 25 55 40 16 53 -29 10 -30 14 -30 67 l0 55 38 -5 c249 -33 355 -58 423 -101 53 -33 64 -56 44 -93 -29 -57 -97 -88 -258 -121 -127 -26 -338 -40 -447 -31 -71 7 -77 8 -35 11 39 2 24 5 -65 15 -154 18 -292 47 -375 81 -18 7 -18 6 -6 -9 12 -15 11 -16 -18 -6 -36 13 -81 62 -81 89 0 10 18 34 39 53 63 57 226 98 454 116 14 1 17 -8 17 -58z m-439 -212 c78 -39 201 -68 444 -104 78 -11 380 -15 423 -5 24 6 62 12 85 14 53 4 179 35 192 47 5 5 17 9 27 9 14 0 18 -8 18 -33 0 -39 -23 -76 -48 -75 -9 0 -30 -5 -47 -12 -16 -7 -41 -15 -54 -17 -14 -2 -32 -8 -41 -13 -9 -5 -25 -7 -36 -6 -10 2 -22 -1 -25 -6 -3 -5 -28 -12 -55 -15 -87 -9 -464 -14 -464 -6 0 4 -35 9 -78 9 -77 2 -102 5 -177 23 -22 6 -53 13 -68 17 -16 4 -31 13 -34 21 -4 10 -8 11 -13 3 -8 -13 -47 -5 -75 17 -14 11 -16 17 -7 20 10 4 10 8 1 19 -6 7 -13 29 -16 49 l-5 35 44 -20 c24 -11 52 -19 63 -19 16 1 15 2 -5 8 -35 11 -88 39 -95 51 -9 15 1 12 46 -11z m1115 -36 c-37 -19 -266 -63 -326 -61 -38 0 -35 2 21 8 81 10 255 45 289 59 39 15 48 12 16 -6z"/> <path d="M1970 3829 c-30 -23 -72 -63 -93 -90 -44 -56 -90 -151 -85 -177 2 -9 13 9 26 43 35 95 95 168 207 250 11 8 16 14 10 15 -5 0 -35 -19 -65 -41z"/> <path d="M2947 3293 c-11 -10 -8 -88 3 -119 6 -15 13 -24 17 -21 3 3 2 14 -2 24 -5 10 -7 42 -6 71 3 51 1 58 -12 45z"/> <path d="M2322 3868 c-6 -8 -9 -74 -8 -171 2 -135 5 -160 20 -175 16 -16 18 -16 38 8 19 23 20 35 16 174 -4 130 -7 151 -23 163 -23 16 -30 16 -43 1z"/> <path d="M2454 3848 c-9 -14 -8 -303 1 -317 9 -16 31 -13 50 6 15 15 17 33 10 157 -4 78 -12 147 -17 154 -13 15 -35 16 -44 0z"/> <path d="M2195 3841 c-6 -6 -8 -68 -5 -163 5 -141 6 -153 24 -156 36 -7 46 24 45 137 0 141 -9 185 -34 189 -11 1 -25 -2 -30 -7z"/> <path d="M2570 3711 c0 -92 5 -111 31 -111 28 0 41 35 38 103 -3 71 -12 87 -45 87 -23 0 -24 -2 -24 -79z"/> <path d="M2083 3767 c-20 -9 -23 -17 -23 -72 0 -81 9 -125 28 -132 28 -11 42 27 42 118 0 93 -6 105 -47 86z"/> <path d="M2610 3356 c-102 -6 -191 -15 -197 -19 -18 -11 -16 -62 2 -77 21 -17 371 -4 401 15 39 25 32 99 -9 93 -7 0 -95 -6 -197 -12z m170 -30 c0 -26 -26 -33 -125 -35 -55 -2 -122 -3 -149 -4 -30 -1 -51 3 -53 10 -6 17 22 22 152 24 66 1 129 6 140 10 29 11 35 11 35 -5z"/> <path d="M2750 3190 c-30 -5 -114 -8 -187 -9 -105 -1 -135 -4 -147 -17 -20 -19 -20 -44 -2 -69 12 -17 26 -18 200 -12 158 5 191 8 207 23 27 24 23 96 -5 93 -6 -1 -36 -5 -66 -9z m30 -32 c-1 -33 -16 -37 -150 -38 -191 -1 -186 -2 -173 11 6 6 68 13 144 16 74 3 141 9 149 14 21 12 30 11 30 -3z"/> <path d="M1840 3068 c0 -45 15 -58 25 -21 4 18 1 31 -9 42 -15 14 -16 12 -16 -21z"/> <path d="M2606 3013 c-182 -4 -206 -10 -206 -57 1 -49 7 -51 187 -48 92 2 184 8 204 13 68 17 77 102 10 97 -14 -1 -102 -4 -195 -5z m178 -31 c15 -24 -17 -32 -159 -36 -145 -5 -194 1 -164 20 8 4 76 9 153 11 77 2 142 5 144 8 8 7 20 6 26 -3z"/> <path d="M1855 2820 c-5 -21 -2 -39 8 -54 14 -20 26 -24 108 -29 51 -4 138 -7 194 -7 86 0 104 3 118 18 21 23 22 56 3 71 -10 8 -77 14 -200 16 -103 2 -195 6 -205 10 -15 5 -21 -1 -26 -25z m238 -17 c115 -5 147 -9 147 -20 0 -11 -32 -13 -171 -11 -169 3 -172 3 -188 27 l-16 24 40 -6 c22 -4 106 -10 188 -14z"/> <path d="M2601 2836 c-203 -12 -215 -17 -195 -73 l10 -28 193 1 c186 2 193 3 217 25 39 37 27 91 -20 87 -12 0 -104 -6 -205 -12z m169 -35 c0 -11 -5 -23 -11 -26 -13 -8 -279 -6 -292 2 -22 13 25 22 123 23 120 1 147 3 156 13 13 13 24 7 24 -12z"/> <path d="M1840 2718 c0 -55 4 -60 18 -19 8 22 7 34 -3 48 -13 16 -14 13 -15 -29z"/> <path d="M1567 2982 c-4 -21 -2 -43 7 -60 13 -26 14 -24 9 23 -7 70 -9 74 -16 37z"/> <path d="M1613 2780 c0 -30 2 -43 4 -27 2 15 2 39 0 55 -2 15 -4 2 -4 -28z"/> <path d="M1613 2505 c0 -27 2 -38 4 -22 2 15 2 37 0 50 -2 12 -4 0 -4 -28z"/> <path d="M1841 2183 c45 -75 45 -75 46 -33 2 34 -2 41 -29 55 -42 21 -43 20 -17 -22z"/> <path d="M1852 2528 c12 -73 79 -206 124 -248 l38 -35 -36 43 c-62 75 -129 239 -114 279 3 7 -1 13 -8 13 -10 0 -11 -11 -4 -52z"/> <path d="M2196 2492 c-8 -13 -9 -299 -1 -311 8 -15 38 -14 53 1 13 13 18 271 6 302 -6 17 -49 22 -58 8z"/> <path d="M2326 2483 c-2 -10 -6 -85 -8 -167 -3 -131 -1 -150 14 -159 13 -9 22 -7 37 7 19 18 21 30 21 166 0 100 -4 150 -12 158 -18 18 -46 15 -52 -5z"/> <path d="M2462 2488 c-8 -8 -12 -58 -12 -160 0 -129 2 -149 17 -155 10 -4 23 2 35 16 15 20 18 42 18 155 0 130 -6 156 -35 156 -6 0 -16 -5 -23 -12z"/> <path d="M2076 2475 c-13 -13 -16 -37 -16 -114 0 -104 9 -127 47 -119 16 3 18 16 18 123 0 103 -2 120 -16 123 -9 2 -24 -4 -33 -13z"/> <path d="M2581 2463 c-5 -10 -8 -63 -7 -118 1 -90 3 -100 20 -103 34 -7 46 25 46 123 0 90 -8 115 -37 115 -7 0 -16 -8 -22 -17z"/> <path d="M2030 2230 c0 -12 35 -31 44 -23 3 3 -2 12 -12 19 -20 16 -32 17 -32 4z"/> <path d="M3450 2031 c-12 -24 2 -61 24 -61 21 0 38 26 34 52 -4 31 -43 37 -58 9z"/> <path d="M3446 1399 c-16 -24 -12 -45 11 -53 33 -13 57 36 31 62 -17 17 -25 15 -42 -9z"/> <path d="M3278 1809 c-22 -13 -23 -52 -2 -70 33 -27 72 33 44 67 -14 16 -19 17 -42 3z"/> <path d="M1296 1801 c-14 -15 -15 -23 -5 -45 13 -28 28 -33 47 -14 22 22 8 78 -18 78 -4 0 -15 -8 -24 -19z"/> <path d="M2564 4391 c3 -4 20 -11 37 -15 17 -3 67 -26 111 -51 45 -25 83 -43 85 -41 6 6 -134 87 -177 103 -42 14 -63 16 -56 4z"/> <path d="M1740 4350 c-19 -11 -31 -19 -27 -20 11 0 67 29 67 35 0 7 -1 7 -40 -15z"/> <path d="M1673 4320 c-13 -5 -23 -12 -23 -15 0 -9 16 -5 36 10 22 16 19 18 -13 5z"/> <path d="M3045 4275 c29 -24 78 -49 70 -36 -3 6 -25 20 -48 32 -29 14 -36 15 -22 4z"/> <path d="M3180 4196 c0 -9 20 -36 116 -149 36 -43 84 -110 106 -150 23 -40 59 -99 80 -132 32 -47 38 -63 29 -76 -8 -13 -6 -19 5 -23 17 -7 76 -128 110 -230 36 -105 56 -238 56 -371 1 -244 -39 -452 -122 -636 -27 -62 -48 -114 -46 -117 8 -8 87 159 116 246 87 262 103 572 41 814 -21 79 -112 295 -159 375 -16 26 -54 91 -85 143 -50 86 -103 155 -209 274 -21 22 -38 37 -38 32z"/> <path d="M3410 3976 c6 -16 23 -45 39 -65 32 -41 109 -189 176 -337 108 -241 136 -503 84 -798 -13 -73 -6 -84 9 -14 50 231 39 485 -29 698 -29 90 -173 381 -228 460 -57 83 -65 92 -51 56z"/> <path d="M642 3410 c-24 -23 -45 -90 -36 -114 6 -16 19 -21 39 -16 6 1 34 2 63 1 67 -3 82 9 82 65 0 54 -31 90 -61 71 -15 -9 -24 -9 -39 1 -25 15 -22 16 -48 -8z m56 -57 c22 -58 20 -82 -2 -50 -17 22 -42 22 -55 0 -17 -32 -24 -4 -8 34 8 21 18 46 21 56 10 30 23 19 44 -40z m64 -3 c2 -39 0 -50 -12 -50 -11 0 -15 13 -16 50 -1 68 23 68 28 0z"/> <path d="M686 2988 c-20 -28 -20 -33 0 -52 21 -22 31 -20 49 8 13 19 14 29 5 45 -14 27 -35 27 -54 -1z"/> <path d="M650 2651 c0 -12 5 -21 10 -21 6 0 10 6 10 14 0 8 -4 18 -10 21 -5 3 -10 -3 -10 -14z"/> <path d="M1050 2614 c0 -15 13 -47 102 -249 17 -38 43 -86 58 -105 15 -19 48 -68 74 -107 25 -40 53 -73 61 -73 17 0 7 17 -95 170 -31 47 -63 101 -70 120 -7 19 -19 42 -25 50 -6 8 -31 59 -55 113 -24 53 -45 97 -47 97 -2 0 -3 -7 -3 -16z"/> <path d="M3774 2564 c-62 -30 -81 -117 -36 -167 15 -16 19 -93 6 -106 -2 -3 -18 5 -34 17 -37 28 -78 27 -112 -1 -28 -23 -55 -77 -38 -77 5 0 7 -7 3 -16 -3 -8 3 -28 14 -42 24 -33 30 -116 39 -579 5 -240 4 -323 -5 -323 -6 0 -11 -7 -11 -15 0 -9 -6 -28 -14 -43 -18 -36 -6 -66 35 -87 58 -31 119 8 119 75 0 24 -5 40 -12 40 -6 0 -8 3 -5 7 4 3 -3 17 -14 29 -25 27 -25 2 -15 514 6 269 10 339 22 358 34 52 40 21 43 -248 4 -280 16 -285 24 -11 4 134 7 300 7 369 0 115 -2 125 -22 141 -26 21 -27 67 -3 108 17 28 17 28 -1 7 -11 -12 -24 -30 -31 -40 -6 -11 -12 -14 -12 -7 -1 19 50 73 69 73 47 0 90 -41 90 -86 0 -9 -13 -29 -29 -45 l-29 -29 -7 -353 c-5 -228 -4 -360 2 -372 12 -21 20 105 29 455 5 202 8 239 23 260 10 14 24 42 31 62 19 51 -3 97 -58 126 -35 18 -42 19 -68 6z m-77 -286 c33 -31 30 -73 -7 -108 l-30 -28 2 -436 c2 -240 6 -436 11 -436 4 0 16 -9 27 -20 41 -41 14 -120 -40 -120 -38 0 -65 38 -56 78 4 15 7 33 8 40 1 6 8 12 16 12 13 0 14 57 10 444 -5 436 -5 443 -27 465 -29 29 -27 69 6 103 32 34 49 35 80 6z"/> <path d="M3630 2245 c-17 -21 -8 -50 17 -53 25 -4 46 27 37 52 -8 20 -38 21 -54 1z"/> <path d="M3646 1221 c-31 -34 0 -81 32 -49 16 16 15 43 -1 57 -11 8 -18 6 -31 -8z"/> <path d="M920 2521 c0 -10 62 -128 97 -183 13 -21 23 -42 23 -47 0 -5 6 -16 13 -23 7 -7 24 -29 37 -48 13 -19 28 -39 32 -45 5 -5 30 -38 57 -72 51 -65 90 -102 131 -123 17 -8 6 7 -31 46 -125 133 -181 211 -273 385 -31 59 -63 109 -71 113 -8 3 -15 1 -15 -3z"/> <path d="M3792 2488 c-17 -17 -15 -57 3 -64 23 -9 46 16 43 45 -3 29 -27 38 -46 19z"/> <path d="M1200 2406 c0 -13 107 -202 139 -246 40 -54 83 -100 94 -100 5 0 4 7 -3 15 -7 8 -20 28 -29 45 -9 16 -37 60 -62 97 -26 37 -57 89 -70 115 -13 26 -28 48 -33 48 -5 0 -15 8 -22 18 -7 9 -14 13 -14 8z"/> <path d="M911 2141 c-23 -22 -30 -36 -27 -54 6 -33 20 -58 45 -81 19 -18 21 -30 22 -155 0 -205 9 -266 43 -299 l28 -27 -26 39 c-26 38 -26 40 -26 237 0 181 -2 199 -18 211 -23 16 -42 51 -42 77 0 45 98 71 120 32 16 -31 12 -76 -10 -104 -18 -23 -20 -40 -20 -212 0 -109 4 -194 10 -206 8 -13 20 -19 43 -18 30 2 30 2 5 6 -38 6 -42 27 -42 219 0 149 1 162 22 191 32 45 30 115 -3 148 -35 35 -84 34 -124 -4z"/> <path d="M951 2096 c-17 -20 -5 -53 21 -61 27 -9 40 6 36 41 -3 33 -37 45 -57 20z"/> <path d="M1064 1985 c-13 -19 -13 -27 -2 -44 14 -23 38 -36 38 -20 0 5 -7 12 -15 15 -8 4 -15 15 -15 25 0 21 39 35 67 24 12 -4 15 -3 8 4 -5 5 -22 12 -38 15 -21 4 -31 -1 -43 -19z"/> <path d="M2867 1933 c-12 -14 -16 -38 -16 -98 1 -44 0 -111 0 -150 -2 -88 15 -233 29 -250 8 -9 8 -15 0 -20 -5 -3 -10 1 -10 10 0 9 -4 14 -9 11 -14 -9 -31 45 -31 99 0 28 1 97 2 155 1 86 -2 111 -17 133 -9 15 -21 27 -26 27 -16 0 -38 -45 -41 -83 -2 -42 -14 -48 -27 -13 -5 13 -16 26 -24 29 -18 7 -47 -22 -47 -46 0 -27 -23 -32 -38 -9 -17 26 -35 28 -53 5 -19 -23 -20 -380 -1 -380 9 0 12 45 12 189 0 166 2 188 16 188 15 0 16 -19 12 -174 -3 -137 -1 -173 9 -169 23 9 63 -7 79 -32 29 -45 -14 -105 -76 -105 -27 0 -50 27 -50 61 0 31 -14 39 -24 13 -6 -16 7 -48 32 -76 22 -26 81 -23 115 5 41 33 46 84 12 125 -15 18 -35 32 -45 32 -26 0 -39 28 -29 62 9 34 9 31 9 68 0 17 5 30 10 30 6 0 10 -21 9 -47 -1 -50 14 -103 30 -103 5 0 16 11 25 25 16 25 22 55 25 138 1 36 16 54 17 20 2 -65 17 -168 27 -186 16 -28 49 -56 65 -57 7 0 -3 19 -23 43 l-36 42 -2 188 c-2 144 1 187 11 187 9 0 12 -42 12 -178 l0 -179 49 -61 c27 -33 52 -58 55 -55 3 4 6 28 6 55 0 34 -5 50 -15 54 -13 5 -15 41 -15 240 0 201 2 234 15 234 13 0 15 -32 15 -230 0 -196 2 -231 15 -236 10 -4 15 -20 15 -50 0 -24 5 -44 10 -44 21 0 60 -49 60 -76 0 -34 -45 -84 -75 -84 -35 0 -69 44 -62 80 7 33 3 37 -19 16 -21 -22 -17 -42 17 -81 25 -29 38 -35 69 -35 91 0 124 118 54 191 -46 48 -58 93 -59 212 0 60 4 111 9 114 4 3 2 9 -5 14 -10 6 -10 13 0 36 9 19 9 29 2 31 -6 2 -9 8 -5 13 6 11 12 110 5 104 -2 -3 -9 5 -15 17 -15 29 -38 33 -59 11z m-167 -323 c0 -136 -2 -160 -15 -160 -13 0 -15 24 -15 153 0 85 3 157 7 160 19 20 23 -7 23 -153z m45 61 c2 -10 -1 -24 -6 -32 -6 -10 -9 -5 -9 18 0 17 -3 40 -6 50 -5 17 -5 17 6 0 6 -9 13 -26 15 -36z m-108 -63 c-2 -13 -4 -5 -4 17 -1 22 1 32 4 23 2 -10 2 -28 0 -40z"/> <path d="M1112 1762 c-1 -100 1 -151 8 -147 11 7 11 109 0 225 -6 64 -7 52 -8 -78z"/> <path d="M2063 1731 c-7 -11 -13 -66 -14 -134 -2 -144 -6 -166 -34 -177 -23 -9 -72 -77 -62 -87 4 -3 18 9 33 27 15 17 37 35 49 40 19 7 23 18 28 92 4 45 7 118 7 161 0 64 3 77 16 77 14 0 15 -17 9 -163 -7 -155 -6 -165 14 -197 33 -54 25 -91 -26 -118 -30 -16 -40 -15 -63 8 -26 26 -25 68 2 97 34 36 15 27 -25 -12 -21 -20 -37 -42 -37 -49 0 -19 63 -65 97 -71 18 -4 35 1 49 13 45 39 51 79 19 146 -15 31 -16 55 -10 177 6 107 4 147 -6 165 -15 29 -30 31 -46 5z"/> <path d="M3310 1425 c0 -27 4 -28 35 -15 17 7 17 9 3 9 -10 1 -18 8 -18 16 0 8 -4 15 -10 15 -5 0 -10 -11 -10 -25z"/> <path d="M2042 1348 c-18 -18 -14 -56 7 -67 14 -8 23 -6 36 9 32 36 -9 92 -43 58z"/> <path d="M2601 1336 c-26 -31 14 -71 45 -45 8 7 14 22 12 33 -4 26 -40 33 -57 12z"/> <path d="M2915 1310 c-15 -17 -16 -24 -7 -45 15 -33 49 -33 64 1 22 48 -22 83 -57 44z"/> <path d="M1705 1304 c-30 -31 0 -86 39 -71 28 11 15 87 -15 87 -4 0 -15 -7 -24 -16z"/> <path d="M3387 1193 c-8 -7 11 -43 22 -43 10 0 3 38 -9 45 -4 2 -10 2 -13 -2z"/> <path d="M3021 804 c22 -36 22 -37 4 -70 -10 -19 -16 -37 -13 -39 7 -7 38 58 38 79 0 21 -29 66 -42 66 -5 0 0 -16 13 -36z"/> <path d="M1632 818 c-35 -43 -4 -120 54 -134 l29 -6 -25 18 c-56 41 -75 85 -48 112 6 6 9 14 6 17 -3 3 -10 0 -16 -7z"/> <path d="M1790 620 c0 -5 6 -7 14 -4 8 3 17 1 21 -5 9 -16 42 -14 42 2 0 9 -14 14 -39 15 -21 1 -38 -2 -38 -8z"/> <path d="M1937 586 c-16 -12 -13 -14 23 -14 22 0 45 -4 51 -8 20 -12 149 -12 149 0 0 7 3 6 8 -2 8 -12 90 -17 202 -13 63 2 13 18 -63 20 -40 1 -85 3 -102 5 -168 23 -249 26 -268 12z"/> </g> </svg> 